ISO-10303-21;
HEADER;
/* Generated by software containing ST-Developer
 * from STEP Tools, Inc. (www.steptools.com) 
 */
/* OPTION: strings as raw bytes, not using required /X/ escapes */

FILE_DESCRIPTION(
/* description */ ('Unknown'),
/* implementation_level */ '2;1');

FILE_NAME(
/* name */ 'FXC.24.A',
/* time_stamp */ '2024-01-25T13:43:43+02:00',
/* author */ ('Unknown'),
/* organization */ ('Unknown'),
/* preprocessor_version */ 'ST-DEVELOPER v18.102',
/* originating_system */ 'Solid Edge',
/* authorisation */ 'Unknown');

FILE_SCHEMA (('AUTOMOTIVE_DESIGN {1 0 10303 214 3 1 1}'));
ENDSEC;

DATA;
#10=PROPERTY_DEFINITION_REPRESENTATION(#14,#12);
#11=PROPERTY_DEFINITION_REPRESENTATION(#15,#13);
#12=REPRESENTATION('',(#16),#646);
#13=REPRESENTATION('',(#17),#646);
#14=PROPERTY_DEFINITION('pmi validation property','',#651);
#15=PROPERTY_DEFINITION('pmi validation property','',#651);
#16=VALUE_REPRESENTATION_ITEM('number of annotations',COUNT_MEASURE(0.));
#17=VALUE_REPRESENTATION_ITEM('number of views',COUNT_MEASURE(0.));
#18=SHAPE_REPRESENTATION_RELATIONSHIP('','',#440,#19);
#19=ADVANCED_BREP_SHAPE_REPRESENTATION('',(#438),#646);
#20=CYLINDRICAL_SURFACE('',#448,0.500000000000003);
#21=CYLINDRICAL_SURFACE('',#452,12.);
#22=CYLINDRICAL_SURFACE('',#455,0.5);
#23=CYLINDRICAL_SURFACE('',#458,0.5);
#24=CYLINDRICAL_SURFACE('',#459,12.);
#25=CYLINDRICAL_SURFACE('',#460,0.500000000000003);
#26=CYLINDRICAL_SURFACE('',#465,3.);
#27=DRAUGHTING_PRE_DEFINED_COLOUR('yellow');
#28=CIRCLE('',#444,0.5);
#29=CIRCLE('',#445,0.500000000000003);
#30=CIRCLE('',#446,12.);
#31=CIRCLE('',#449,0.500000000000003);
#32=CIRCLE('',#450,0.500000000000003);
#33=CIRCLE('',#453,12.);
#34=CIRCLE('',#454,12.);
#35=CIRCLE('',#456,0.5);
#36=CIRCLE('',#457,0.5);
#37=CIRCLE('',#466,3.);
#38=CIRCLE('',#467,3.);
#39=ORIENTED_EDGE('',*,*,#121,.T.);
#40=ORIENTED_EDGE('',*,*,#122,.T.);
#41=ORIENTED_EDGE('',*,*,#123,.T.);
#42=ORIENTED_EDGE('',*,*,#124,.F.);
#43=ORIENTED_EDGE('',*,*,#122,.F.);
#44=ORIENTED_EDGE('',*,*,#121,.F.);
#45=ORIENTED_EDGE('',*,*,#124,.T.);
#46=ORIENTED_EDGE('',*,*,#123,.F.);
#47=ORIENTED_EDGE('',*,*,#125,.F.);
#48=ORIENTED_EDGE('',*,*,#126,.F.);
#49=ORIENTED_EDGE('',*,*,#127,.F.);
#50=ORIENTED_EDGE('',*,*,#128,.F.);
#51=ORIENTED_EDGE('',*,*,#129,.F.);
#52=ORIENTED_EDGE('',*,*,#130,.F.);
#53=ORIENTED_EDGE('',*,*,#131,.F.);
#54=ORIENTED_EDGE('',*,*,#132,.T.);
#55=ORIENTED_EDGE('',*,*,#133,.T.);
#56=ORIENTED_EDGE('',*,*,#134,.F.);
#57=ORIENTED_EDGE('',*,*,#135,.F.);
#58=ORIENTED_EDGE('',*,*,#136,.T.);
#59=ORIENTED_EDGE('',*,*,#137,.T.);
#60=ORIENTED_EDGE('',*,*,#138,.F.);
#61=ORIENTED_EDGE('',*,*,#139,.F.);
#62=ORIENTED_EDGE('',*,*,#140,.F.);
#63=ORIENTED_EDGE('',*,*,#141,.T.);
#64=ORIENTED_EDGE('',*,*,#135,.T.);
#65=ORIENTED_EDGE('',*,*,#142,.F.);
#66=ORIENTED_EDGE('',*,*,#143,.T.);
#67=ORIENTED_EDGE('',*,*,#144,.T.);
#68=ORIENTED_EDGE('',*,*,#145,.T.);
#69=ORIENTED_EDGE('',*,*,#146,.F.);
#70=ORIENTED_EDGE('',*,*,#147,.T.);
#71=ORIENTED_EDGE('',*,*,#148,.F.);
#72=ORIENTED_EDGE('',*,*,#149,.T.);
#73=ORIENTED_EDGE('',*,*,#140,.T.);
#74=ORIENTED_EDGE('',*,*,#150,.F.);
#75=ORIENTED_EDGE('',*,*,#145,.F.);
#76=ORIENTED_EDGE('',*,*,#151,.T.);
#77=ORIENTED_EDGE('',*,*,#148,.T.);
#78=ORIENTED_EDGE('',*,*,#152,.F.);
#79=ORIENTED_EDGE('',*,*,#151,.F.);
#80=ORIENTED_EDGE('',*,*,#153,.F.);
#81=ORIENTED_EDGE('',*,*,#125,.T.);
#82=ORIENTED_EDGE('',*,*,#154,.T.);
#83=ORIENTED_EDGE('',*,*,#149,.F.);
#84=ORIENTED_EDGE('',*,*,#154,.F.);
#85=ORIENTED_EDGE('',*,*,#130,.T.);
#86=ORIENTED_EDGE('',*,*,#155,.T.);
#87=ORIENTED_EDGE('',*,*,#141,.F.);
#88=ORIENTED_EDGE('',*,*,#155,.F.);
#89=ORIENTED_EDGE('',*,*,#129,.T.);
#90=ORIENTED_EDGE('',*,*,#156,.T.);
#91=ORIENTED_EDGE('',*,*,#136,.F.);
#92=ORIENTED_EDGE('',*,*,#156,.F.);
#93=ORIENTED_EDGE('',*,*,#128,.T.);
#94=ORIENTED_EDGE('',*,*,#157,.T.);
#95=ORIENTED_EDGE('',*,*,#158,.F.);
#96=ORIENTED_EDGE('',*,*,#157,.F.);
#97=ORIENTED_EDGE('',*,*,#127,.T.);
#98=ORIENTED_EDGE('',*,*,#159,.T.);
#99=ORIENTED_EDGE('',*,*,#144,.F.);
#100=ORIENTED_EDGE('',*,*,#159,.F.);
#101=ORIENTED_EDGE('',*,*,#126,.T.);
#102=ORIENTED_EDGE('',*,*,#153,.T.);
#103=ORIENTED_EDGE('',*,*,#132,.F.);
#104=ORIENTED_EDGE('',*,*,#131,.T.);
#105=ORIENTED_EDGE('',*,*,#134,.T.);
#106=ORIENTED_EDGE('',*,*,#133,.F.);
#107=ORIENTED_EDGE('',*,*,#160,.F.);
#108=ORIENTED_EDGE('',*,*,#147,.F.);
#109=ORIENTED_EDGE('',*,*,#161,.F.);
#110=ORIENTED_EDGE('',*,*,#138,.T.);
#111=ORIENTED_EDGE('',*,*,#146,.T.);
#112=ORIENTED_EDGE('',*,*,#152,.T.);
#113=ORIENTED_EDGE('',*,*,#150,.T.);
#114=ORIENTED_EDGE('',*,*,#142,.T.);
#115=ORIENTED_EDGE('',*,*,#139,.T.);
#116=ORIENTED_EDGE('',*,*,#161,.T.);
#117=ORIENTED_EDGE('',*,*,#137,.F.);
#118=ORIENTED_EDGE('',*,*,#158,.T.);
#119=ORIENTED_EDGE('',*,*,#143,.F.);
#120=ORIENTED_EDGE('',*,*,#160,.T.);
#121=EDGE_CURVE('',#162,#163,#190,.T.);
#122=EDGE_CURVE('',#163,#164,#191,.T.);
#123=EDGE_CURVE('',#164,#165,#192,.T.);
#124=EDGE_CURVE('',#162,#165,#193,.T.);
#125=EDGE_CURVE('',#166,#167,#28,.T.);
#126=EDGE_CURVE('',#168,#166,#194,.T.);
#127=EDGE_CURVE('',#169,#168,#195,.T.);
#128=EDGE_CURVE('',#170,#169,#196,.T.);
#129=EDGE_CURVE('',#171,#170,#29,.T.);
#130=EDGE_CURVE('',#167,#171,#30,.T.);
#131=EDGE_CURVE('',#172,#173,#197,.T.);
#132=EDGE_CURVE('',#172,#174,#198,.T.);
#133=EDGE_CURVE('',#174,#175,#199,.T.);
#134=EDGE_CURVE('',#173,#175,#200,.T.);
#135=EDGE_CURVE('',#176,#177,#201,.T.);
#136=EDGE_CURVE('',#176,#178,#202,.T.);
#137=EDGE_CURVE('',#178,#179,#203,.T.);
#138=EDGE_CURVE('',#180,#179,#204,.T.);
#139=EDGE_CURVE('',#177,#180,#205,.T.);
#140=EDGE_CURVE('',#181,#182,#206,.T.);
#141=EDGE_CURVE('',#181,#176,#31,.T.);
#142=EDGE_CURVE('',#182,#177,#32,.T.);
#143=EDGE_CURVE('',#183,#184,#207,.T.);
#144=EDGE_CURVE('',#184,#185,#208,.T.);
#145=EDGE_CURVE('',#185,#186,#209,.T.);
#146=EDGE_CURVE('',#187,#186,#210,.T.);
#147=EDGE_CURVE('',#187,#183,#211,.T.);
#148=EDGE_CURVE('',#188,#189,#212,.T.);
#149=EDGE_CURVE('',#188,#181,#33,.F.);
#150=EDGE_CURVE('',#189,#182,#34,.T.);
#151=EDGE_CURVE('',#185,#188,#35,.T.);
#152=EDGE_CURVE('',#186,#189,#36,.T.);
#153=EDGE_CURVE('',#166,#185,#213,.T.);
#154=EDGE_CURVE('',#167,#188,#214,.T.);
#155=EDGE_CURVE('',#171,#181,#215,.T.);
#156=EDGE_CURVE('',#170,#176,#216,.T.);
#157=EDGE_CURVE('',#169,#178,#217,.T.);
#158=EDGE_CURVE('',#178,#184,#218,.T.);
#159=EDGE_CURVE('',#168,#184,#219,.T.);
#160=EDGE_CURVE('',#183,#179,#37,.F.);
#161=EDGE_CURVE('',#180,#187,#38,.T.);
#162=VERTEX_POINT('',#561);
#163=VERTEX_POINT('',#562);
#164=VERTEX_POINT('',#564);
#165=VERTEX_POINT('',#566);
#166=VERTEX_POINT('',#570);
#167=VERTEX_POINT('',#571);
#168=VERTEX_POINT('',#573);
#169=VERTEX_POINT('',#575);
#170=VERTEX_POINT('',#577);
#171=VERTEX_POINT('',#579);
#172=VERTEX_POINT('',#582);
#173=VERTEX_POINT('',#583);
#174=VERTEX_POINT('',#585);
#175=VERTEX_POINT('',#587);
#176=VERTEX_POINT('',#591);
#177=VERTEX_POINT('',#592);
#178=VERTEX_POINT('',#594);
#179=VERTEX_POINT('',#596);
#180=VERTEX_POINT('',#598);
#181=VERTEX_POINT('',#602);
#182=VERTEX_POINT('',#603);
#183=VERTEX_POINT('',#608);
#184=VERTEX_POINT('',#609);
#185=VERTEX_POINT('',#611);
#186=VERTEX_POINT('',#613);
#187=VERTEX_POINT('',#615);
#188=VERTEX_POINT('',#619);
#189=VERTEX_POINT('',#620);
#190=LINE('',#560,#220);
#191=LINE('',#563,#221);
#192=LINE('',#565,#222);
#193=LINE('',#567,#223);
#194=LINE('',#572,#224);
#195=LINE('',#574,#225);
#196=LINE('',#576,#226);
#197=LINE('',#581,#227);
#198=LINE('',#584,#228);
#199=LINE('',#586,#229);
#200=LINE('',#588,#230);
#201=LINE('',#590,#231);
#202=LINE('',#593,#232);
#203=LINE('',#595,#233);
#204=LINE('',#597,#234);
#205=LINE('',#599,#235);
#206=LINE('',#601,#236);
#207=LINE('',#607,#237);
#208=LINE('',#610,#238);
#209=LINE('',#612,#239);
#210=LINE('',#614,#240);
#211=LINE('',#616,#241);
#212=LINE('',#618,#242);
#213=LINE('',#627,#243);
#214=LINE('',#628,#244);
#215=LINE('',#630,#245);
#216=LINE('',#632,#246);
#217=LINE('',#634,#247);
#218=LINE('',#636,#248);
#219=LINE('',#637,#249);
#220=VECTOR('',#474,1000.);
#221=VECTOR('',#475,1000.);
#222=VECTOR('',#476,1000.);
#223=VECTOR('',#477,1000.);
#224=VECTOR('',#482,1000.);
#225=VECTOR('',#483,1000.);
#226=VECTOR('',#484,1000.);
#227=VECTOR('',#489,1000.);
#228=VECTOR('',#490,1000.);
#229=VECTOR('',#491,1000.);
#230=VECTOR('',#492,1000.);
#231=VECTOR('',#495,1000.);
#232=VECTOR('',#496,1000.);
#233=VECTOR('',#497,1000.);
#234=VECTOR('',#498,1000.);
#235=VECTOR('',#499,1000.);
#236=VECTOR('',#502,1000.);
#237=VECTOR('',#509,1000.);
#238=VECTOR('',#510,1000.);
#239=VECTOR('',#511,1000.);
#240=VECTOR('',#512,1000.);
#241=VECTOR('',#513,1000.);
#242=VECTOR('',#516,1000.);
#243=VECTOR('',#529,1000.);
#244=VECTOR('',#530,1000.);
#245=VECTOR('',#533,1000.);
#246=VECTOR('',#536,1000.);
#247=VECTOR('',#539,1000.);
#248=VECTOR('',#542,1000.);
#249=VECTOR('',#543,1000.);
#250=EDGE_LOOP('',(#39,#40,#41,#42));
#251=EDGE_LOOP('',(#43,#44,#45,#46));
#252=EDGE_LOOP('',(#47,#48,#49,#50,#51,#52));
#253=EDGE_LOOP('',(#53,#54,#55,#56));
#254=EDGE_LOOP('',(#57,#58,#59,#60,#61));
#255=EDGE_LOOP('',(#62,#63,#64,#65));
#256=EDGE_LOOP('',(#66,#67,#68,#69,#70));
#257=EDGE_LOOP('',(#71,#72,#73,#74));
#258=EDGE_LOOP('',(#75,#76,#77,#78));
#259=EDGE_LOOP('',(#79,#80,#81,#82));
#260=EDGE_LOOP('',(#83,#84,#85,#86));
#261=EDGE_LOOP('',(#87,#88,#89,#90));
#262=EDGE_LOOP('',(#91,#92,#93,#94));
#263=EDGE_LOOP('',(#95,#96,#97,#98));
#264=EDGE_LOOP('',(#99,#100,#101,#102));
#265=EDGE_LOOP('',(#103,#104,#105,#106));
#266=EDGE_LOOP('',(#107,#108,#109,#110));
#267=EDGE_LOOP('',(#111,#112,#113,#114,#115,#116));
#268=EDGE_LOOP('',(#117,#118,#119,#120));
#269=FACE_BOUND('',#250,.T.);
#270=FACE_BOUND('',#251,.T.);
#271=FACE_BOUND('',#252,.T.);
#272=FACE_BOUND('',#253,.T.);
#273=FACE_BOUND('',#254,.T.);
#274=FACE_BOUND('',#255,.T.);
#275=FACE_BOUND('',#256,.T.);
#276=FACE_BOUND('',#257,.T.);
#277=FACE_BOUND('',#258,.T.);
#278=FACE_BOUND('',#259,.T.);
#279=FACE_BOUND('',#260,.T.);
#280=FACE_BOUND('',#261,.T.);
#281=FACE_BOUND('',#262,.T.);
#282=FACE_BOUND('',#263,.T.);
#283=FACE_BOUND('',#264,.T.);
#284=FACE_BOUND('',#265,.T.);
#285=FACE_BOUND('',#266,.T.);
#286=FACE_BOUND('',#267,.T.);
#287=FACE_BOUND('',#268,.T.);
#288=PLANE('',#442);
#289=PLANE('',#443);
#290=PLANE('',#447);
#291=PLANE('',#451);
#292=PLANE('',#461);
#293=PLANE('',#462);
#294=PLANE('',#463);
#295=PLANE('',#464);
#296=PLANE('',#468);
#297=PLANE('',#469);
#298=STYLED_ITEM('',(#315),#420);
#299=STYLED_ITEM('',(#316),#421);
#300=STYLED_ITEM('',(#317),#422);
#301=STYLED_ITEM('',(#318),#423);
#302=STYLED_ITEM('',(#319),#424);
#303=STYLED_ITEM('',(#320),#425);
#304=STYLED_ITEM('',(#321),#426);
#305=STYLED_ITEM('',(#322),#427);
#306=STYLED_ITEM('',(#323),#428);
#307=STYLED_ITEM('',(#324),#429);
#308=STYLED_ITEM('',(#325),#430);
#309=STYLED_ITEM('',(#326),#431);
#310=STYLED_ITEM('',(#327),#432);
#311=STYLED_ITEM('',(#328),#433);
#312=STYLED_ITEM('',(#329),#434);
#313=STYLED_ITEM('',(#330),#435);
#314=STYLED_ITEM('',(#331),#436);
#315=PRESENTATION_STYLE_ASSIGNMENT((#332));
#316=PRESENTATION_STYLE_ASSIGNMENT((#333));
#317=PRESENTATION_STYLE_ASSIGNMENT((#334));
#318=PRESENTATION_STYLE_ASSIGNMENT((#335));
#319=PRESENTATION_STYLE_ASSIGNMENT((#336));
#320=PRESENTATION_STYLE_ASSIGNMENT((#337));
#321=PRESENTATION_STYLE_ASSIGNMENT((#338));
#322=PRESENTATION_STYLE_ASSIGNMENT((#339));
#323=PRESENTATION_STYLE_ASSIGNMENT((#340));
#324=PRESENTATION_STYLE_ASSIGNMENT((#341));
#325=PRESENTATION_STYLE_ASSIGNMENT((#342));
#326=PRESENTATION_STYLE_ASSIGNMENT((#343));
#327=PRESENTATION_STYLE_ASSIGNMENT((#344));
#328=PRESENTATION_STYLE_ASSIGNMENT((#345));
#329=PRESENTATION_STYLE_ASSIGNMENT((#346));
#330=PRESENTATION_STYLE_ASSIGNMENT((#347));
#331=PRESENTATION_STYLE_ASSIGNMENT((#348));
#332=SURFACE_STYLE_USAGE(.BOTH.,#349);
#333=SURFACE_STYLE_USAGE(.BOTH.,#350);
#334=SURFACE_STYLE_USAGE(.BOTH.,#351);
#335=SURFACE_STYLE_USAGE(.BOTH.,#352);
#336=SURFACE_STYLE_USAGE(.BOTH.,#353);
#337=SURFACE_STYLE_USAGE(.BOTH.,#354);
#338=SURFACE_STYLE_USAGE(.BOTH.,#355);
#339=SURFACE_STYLE_USAGE(.BOTH.,#356);
#340=SURFACE_STYLE_USAGE(.BOTH.,#357);
#341=SURFACE_STYLE_USAGE(.BOTH.,#358);
#342=SURFACE_STYLE_USAGE(.BOTH.,#359);
#343=SURFACE_STYLE_USAGE(.BOTH.,#360);
#344=SURFACE_STYLE_USAGE(.BOTH.,#361);
#345=SURFACE_STYLE_USAGE(.BOTH.,#362);
#346=SURFACE_STYLE_USAGE(.BOTH.,#363);
#347=SURFACE_STYLE_USAGE(.BOTH.,#364);
#348=SURFACE_STYLE_USAGE(.BOTH.,#365);
#349=SURFACE_SIDE_STYLE('',(#366));
#350=SURFACE_SIDE_STYLE('',(#367));
#351=SURFACE_SIDE_STYLE('',(#368));
#352=SURFACE_SIDE_STYLE('',(#369));
#353=SURFACE_SIDE_STYLE('',(#370));
#354=SURFACE_SIDE_STYLE('',(#371));
#355=SURFACE_SIDE_STYLE('',(#372));
#356=SURFACE_SIDE_STYLE('',(#373));
#357=SURFACE_SIDE_STYLE('',(#374));
#358=SURFACE_SIDE_STYLE('',(#375));
#359=SURFACE_SIDE_STYLE('',(#376));
#360=SURFACE_SIDE_STYLE('',(#377));
#361=SURFACE_SIDE_STYLE('',(#378));
#362=SURFACE_SIDE_STYLE('',(#379));
#363=SURFACE_SIDE_STYLE('',(#380));
#364=SURFACE_SIDE_STYLE('',(#381));
#365=SURFACE_SIDE_STYLE('',(#382));
#366=SURFACE_STYLE_FILL_AREA(#383);
#367=SURFACE_STYLE_FILL_AREA(#384);
#368=SURFACE_STYLE_FILL_AREA(#385);
#369=SURFACE_STYLE_FILL_AREA(#386);
#370=SURFACE_STYLE_FILL_AREA(#387);
#371=SURFACE_STYLE_FILL_AREA(#388);
#372=SURFACE_STYLE_FILL_AREA(#389);
#373=SURFACE_STYLE_FILL_AREA(#390);
#374=SURFACE_STYLE_FILL_AREA(#391);
#375=SURFACE_STYLE_FILL_AREA(#392);
#376=SURFACE_STYLE_FILL_AREA(#393);
#377=SURFACE_STYLE_FILL_AREA(#394);
#378=SURFACE_STYLE_FILL_AREA(#395);
#379=SURFACE_STYLE_FILL_AREA(#396);
#380=SURFACE_STYLE_FILL_AREA(#397);
#381=SURFACE_STYLE_FILL_AREA(#398);
#382=SURFACE_STYLE_FILL_AREA(#399);
#383=FILL_AREA_STYLE('',(#400));
#384=FILL_AREA_STYLE('',(#401));
#385=FILL_AREA_STYLE('',(#402));
#386=FILL_AREA_STYLE('',(#403));
#387=FILL_AREA_STYLE('',(#404));
#388=FILL_AREA_STYLE('',(#405));
#389=FILL_AREA_STYLE('',(#406));
#390=FILL_AREA_STYLE('',(#407));
#391=FILL_AREA_STYLE('',(#408));
#392=FILL_AREA_STYLE('',(#409));
#393=FILL_AREA_STYLE('',(#410));
#394=FILL_AREA_STYLE('',(#411));
#395=FILL_AREA_STYLE('',(#412));
#396=FILL_AREA_STYLE('',(#413));
#397=FILL_AREA_STYLE('',(#414));
#398=FILL_AREA_STYLE('',(#415));
#399=FILL_AREA_STYLE('',(#416));
#400=FILL_AREA_STYLE_COLOUR('',#417);
#401=FILL_AREA_STYLE_COLOUR('',#418);
#402=FILL_AREA_STYLE_COLOUR('',#27);
#403=FILL_AREA_STYLE_COLOUR('',#27);
#404=FILL_AREA_STYLE_COLOUR('',#27);
#405=FILL_AREA_STYLE_COLOUR('',#27);
#406=FILL_AREA_STYLE_COLOUR('',#27);
#407=FILL_AREA_STYLE_COLOUR('',#418);
#408=FILL_AREA_STYLE_COLOUR('',#418);
#409=FILL_AREA_STYLE_COLOUR('',#418);
#410=FILL_AREA_STYLE_COLOUR('',#418);
#411=FILL_AREA_STYLE_COLOUR('',#418);
#412=FILL_AREA_STYLE_COLOUR('',#418);
#413=FILL_AREA_STYLE_COLOUR('',#417);
#414=FILL_AREA_STYLE_COLOUR('',#27);
#415=FILL_AREA_STYLE_COLOUR('',#419);
#416=FILL_AREA_STYLE_COLOUR('',#27);
#417=COLOUR_RGB('',0.800000011920929,0.666434764862061,0.319999992847443);
#418=COLOUR_RGB('',0.200000002980232,0.200000002980232,0.200000002980232);
#419=COLOUR_RGB('',0.699999988079071,0.682926833629608,0.524999976158142);
#420=ADVANCED_FACE('',(#269),#288,.T.);
#421=ADVANCED_FACE('',(#270,#271,#272),#289,.T.);
#422=ADVANCED_FACE('',(#273),#290,.T.);
#423=ADVANCED_FACE('',(#274),#20,.F.);
#424=ADVANCED_FACE('',(#275),#291,.T.);
#425=ADVANCED_FACE('',(#276),#21,.T.);
#426=ADVANCED_FACE('',(#277),#22,.F.);
#427=ADVANCED_FACE('',(#278),#23,.F.);
#428=ADVANCED_FACE('',(#279),#24,.T.);
#429=ADVANCED_FACE('',(#280),#25,.F.);
#430=ADVANCED_FACE('',(#281),#292,.T.);
#431=ADVANCED_FACE('',(#282),#293,.T.);
#432=ADVANCED_FACE('',(#283),#294,.T.);
#433=ADVANCED_FACE('',(#284),#295,.T.);
#434=ADVANCED_FACE('',(#285),#26,.T.);
#435=ADVANCED_FACE('',(#286),#296,.F.);
#436=ADVANCED_FACE('',(#287),#297,.T.);
#437=CLOSED_SHELL('',(#420,#421,#422,#423,#424,#425,#426,#427,#428,#429,
#430,#431,#432,#433,#434,#435,#436));
#438=MANIFOLD_SOLID_BREP('',#437);
#439=SHAPE_DEFINITION_REPRESENTATION(#651,#440);
#440=SHAPE_REPRESENTATION('FXC.24.A',(#441),#646);
#441=AXIS2_PLACEMENT_3D('',#558,#470,#471);
#442=AXIS2_PLACEMENT_3D('',#559,#472,#473);
#443=AXIS2_PLACEMENT_3D('',#568,#478,#479);
#444=AXIS2_PLACEMENT_3D('',#569,#480,#481);
#445=AXIS2_PLACEMENT_3D('',#578,#485,#486);
#446=AXIS2_PLACEMENT_3D('',#580,#487,#488);
#447=AXIS2_PLACEMENT_3D('',#589,#493,#494);
#448=AXIS2_PLACEMENT_3D('',#600,#500,#501);
#449=AXIS2_PLACEMENT_3D('',#604,#503,#504);
#450=AXIS2_PLACEMENT_3D('',#605,#505,#506);
#451=AXIS2_PLACEMENT_3D('',#606,#507,#508);
#452=AXIS2_PLACEMENT_3D('',#617,#514,#515);
#453=AXIS2_PLACEMENT_3D('',#621,#517,#518);
#454=AXIS2_PLACEMENT_3D('',#622,#519,#520);
#455=AXIS2_PLACEMENT_3D('',#623,#521,#522);
#456=AXIS2_PLACEMENT_3D('',#624,#523,#524);
#457=AXIS2_PLACEMENT_3D('',#625,#525,#526);
#458=AXIS2_PLACEMENT_3D('',#626,#527,#528);
#459=AXIS2_PLACEMENT_3D('',#629,#531,#532);
#460=AXIS2_PLACEMENT_3D('',#631,#534,#535);
#461=AXIS2_PLACEMENT_3D('',#633,#537,#538);
#462=AXIS2_PLACEMENT_3D('',#635,#540,#541);
#463=AXIS2_PLACEMENT_3D('',#638,#544,#545);
#464=AXIS2_PLACEMENT_3D('',#639,#546,#547);
#465=AXIS2_PLACEMENT_3D('',#640,#548,#549);
#466=AXIS2_PLACEMENT_3D('',#641,#550,#551);
#467=AXIS2_PLACEMENT_3D('',#642,#552,#553);
#468=AXIS2_PLACEMENT_3D('',#643,#554,#555);
#469=AXIS2_PLACEMENT_3D('',#644,#556,#557);
#470=DIRECTION('',(0.,0.,1.));
#471=DIRECTION('',(1.,0.,0.));
#472=DIRECTION('',(0.,-1.,0.));
#473=DIRECTION('',(0.,0.,-1.));
#474=DIRECTION('',(-1.,0.,0.));
#475=DIRECTION('',(0.,0.,-1.));
#476=DIRECTION('',(1.,0.,0.));
#477=DIRECTION('',(0.,0.,-1.));
#478=DIRECTION('',(0.,-1.,0.));
#479=DIRECTION('',(0.,0.,-1.));
#480=DIRECTION('',(0.,-1.,0.));
#481=DIRECTION('',(1.,0.,0.));
#482=DIRECTION('',(0.,0.,-1.));
#483=DIRECTION('',(1.,0.,0.));
#484=DIRECTION('',(-9.73001949666483E-16,0.,1.));
#485=DIRECTION('',(0.,-1.,0.));
#486=DIRECTION('',(-1.,0.,0.));
#487=DIRECTION('',(0.,1.,0.));
#488=DIRECTION('',(0.,0.,1.));
#489=DIRECTION('',(0.,0.,-1.));
#490=DIRECTION('',(1.,0.,0.));
#491=DIRECTION('',(0.,0.,-1.));
#492=DIRECTION('',(1.,0.,0.));
#493=DIRECTION('',(-1.,0.,-9.73001949666483E-16));
#494=DIRECTION('',(-9.73001949666483E-16,0.,1.));
#495=DIRECTION('',(0.,1.,0.));
#496=DIRECTION('',(-9.73001949666483E-16,0.,1.));
#497=DIRECTION('',(0.,0.,1.));
#498=DIRECTION('',(0.,-1.,0.));
#499=DIRECTION('',(-1.11200222819027E-15,0.,1.));
#500=DIRECTION('',(0.,1.,0.));
#501=DIRECTION('',(0.,0.,1.));
#502=DIRECTION('',(0.,1.,0.));
#503=DIRECTION('',(0.,-1.,0.));
#504=DIRECTION('',(0.,0.,-1.));
#505=DIRECTION('',(0.,-1.,0.));
#506=DIRECTION('',(0.,0.,-1.));
#507=DIRECTION('',(1.,0.,0.));
#508=DIRECTION('',(0.,0.,-1.));
#509=DIRECTION('',(0.,0.,-1.));
#510=DIRECTION('',(0.,0.,-1.));
#511=DIRECTION('',(0.,1.,0.));
#512=DIRECTION('',(0.,0.,-1.));
#513=DIRECTION('',(0.,-1.,0.));
#514=DIRECTION('',(0.,1.,0.));
#515=DIRECTION('',(0.,0.,1.));
#516=DIRECTION('',(0.,1.,0.));
#517=DIRECTION('',(0.,-1.,0.));
#518=DIRECTION('',(0.,0.,-1.));
#519=DIRECTION('',(0.,1.,0.));
#520=DIRECTION('',(0.,0.,1.));
#521=DIRECTION('',(0.,1.,0.));
#522=DIRECTION('',(0.,0.,1.));
#523=DIRECTION('',(0.,-1.,0.));
#524=DIRECTION('',(0.,0.,-1.));
#525=DIRECTION('',(0.,-1.,0.));
#526=DIRECTION('',(0.,0.,-1.));
#527=DIRECTION('',(0.,1.,0.));
#528=DIRECTION('',(0.,0.,1.));
#529=DIRECTION('',(0.,1.,0.));
#530=DIRECTION('',(0.,1.,0.));
#531=DIRECTION('',(0.,1.,0.));
#532=DIRECTION('',(0.,0.,1.));
#533=DIRECTION('',(0.,1.,0.));
#534=DIRECTION('',(0.,1.,0.));
#535=DIRECTION('',(0.,0.,1.));
#536=DIRECTION('',(0.,1.,0.));
#537=DIRECTION('',(-1.,0.,-9.73001949666483E-16));
#538=DIRECTION('',(-9.73001949666483E-16,0.,1.));
#539=DIRECTION('',(0.,1.,0.));
#540=DIRECTION('',(0.,0.,1.));
#541=DIRECTION('',(1.,0.,0.));
#542=DIRECTION('',(1.,0.,0.));
#543=DIRECTION('',(0.,1.,0.));
#544=DIRECTION('',(1.,0.,0.));
#545=DIRECTION('',(0.,0.,-1.));
#546=DIRECTION('',(0.,-1.,0.));
#547=DIRECTION('',(0.,0.,-1.));
#548=DIRECTION('',(0.,-1.,0.));
#549=DIRECTION('',(0.,0.,-1.));
#550=DIRECTION('',(0.,1.,0.));
#551=DIRECTION('',(0.,0.,-1.));
#552=DIRECTION('',(0.,1.,0.));
#553=DIRECTION('',(0.,0.,-1.));
#554=DIRECTION('',(0.,-1.,0.));
#555=DIRECTION('',(0.,0.,-1.));
#556=DIRECTION('',(0.,-1.,0.));
#557=DIRECTION('',(0.,0.,-1.));
#558=CARTESIAN_POINT('',(0.,0.,0.));
#559=CARTESIAN_POINT('',(3.5,-0.11,12.));
#560=CARTESIAN_POINT('',(2.,-0.11,14.679966780344));
#561=CARTESIAN_POINT('',(2.,-0.11,14.679966780344));
#562=CARTESIAN_POINT('',(0.5,-0.11,14.679966780344));
#563=CARTESIAN_POINT('',(0.5,-0.11,14.679966780344));
#564=CARTESIAN_POINT('',(0.5,-0.11,12.279966780344));
#565=CARTESIAN_POINT('',(0.5,-0.11,12.279966780344));
#566=CARTESIAN_POINT('',(2.,-0.11,12.279966780344));
#567=CARTESIAN_POINT('',(2.,-0.11,14.679966780344));
#568=CARTESIAN_POINT('',(3.5,-0.11,12.));
#569=CARTESIAN_POINT('',(3.5,-0.11,12.));
#570=CARTESIAN_POINT('',(3.,-0.11,12.));
#571=CARTESIAN_POINT('',(3.36,-0.11,11.52));
#572=CARTESIAN_POINT('',(3.,-0.11,15.12));
#573=CARTESIAN_POINT('',(3.,-0.11,15.12));
#574=CARTESIAN_POINT('',(-3.,-0.11,15.12));
#575=CARTESIAN_POINT('',(-3.,-0.11,15.12));
#576=CARTESIAN_POINT('',(-3.,-0.11,15.12));
#577=CARTESIAN_POINT('',(-3.,-0.11,12.));
#578=CARTESIAN_POINT('',(-3.5,-0.11,12.));
#579=CARTESIAN_POINT('',(-3.36,-0.11,11.52));
#580=CARTESIAN_POINT('',(0.,-0.11,0.));
#581=CARTESIAN_POINT('',(-2.,-0.11,14.679966780344));
#582=CARTESIAN_POINT('',(-2.,-0.11,14.679966780344));
#583=CARTESIAN_POINT('',(-2.,-0.11,12.279966780344));
#584=CARTESIAN_POINT('',(-2.,-0.11,14.679966780344));
#585=CARTESIAN_POINT('',(-0.5,-0.11,14.679966780344));
#586=CARTESIAN_POINT('',(-0.5,-0.11,14.679966780344));
#587=CARTESIAN_POINT('',(-0.5,-0.11,12.279966780344));
#588=CARTESIAN_POINT('',(-2.,-0.11,12.279966780344));
#589=CARTESIAN_POINT('',(-3.,-0.11,15.12));
#590=CARTESIAN_POINT('',(-3.,-0.11,12.));
#591=CARTESIAN_POINT('',(-3.,0.,12.));
#592=CARTESIAN_POINT('',(-3.,0.05,12.));
#593=CARTESIAN_POINT('',(-3.,0.,15.12));
#594=CARTESIAN_POINT('',(-3.,0.,15.12));
#595=CARTESIAN_POINT('',(-3.,0.,15.12));
#596=CARTESIAN_POINT('',(-3.,0.,16.0455827175008));
#597=CARTESIAN_POINT('',(-3.,0.05,16.0455827175008));
#598=CARTESIAN_POINT('',(-3.,0.05,16.0455827175008));
#599=CARTESIAN_POINT('',(-3.,0.05,12.));
#600=CARTESIAN_POINT('',(-3.5,-0.11,12.));
#601=CARTESIAN_POINT('',(-3.36,-0.11,11.52));
#602=CARTESIAN_POINT('',(-3.36,0.,11.52));
#603=CARTESIAN_POINT('',(-3.36,0.05,11.52));
#604=CARTESIAN_POINT('',(-3.5,0.,12.));
#605=CARTESIAN_POINT('',(-3.5,0.05,12.));
#606=CARTESIAN_POINT('',(3.,-0.11,15.12));
#607=CARTESIAN_POINT('',(3.,0.,15.12));
#608=CARTESIAN_POINT('',(3.,0.,16.0455827175008));
#609=CARTESIAN_POINT('',(3.,0.,15.12));
#610=CARTESIAN_POINT('',(3.,0.,15.12));
#611=CARTESIAN_POINT('',(3.,0.,12.));
#612=CARTESIAN_POINT('',(3.,-0.11,12.));
#613=CARTESIAN_POINT('',(3.,0.05,12.));
#614=CARTESIAN_POINT('',(3.,0.05,15.12));
#615=CARTESIAN_POINT('',(3.,0.05,16.0455827175008));
#616=CARTESIAN_POINT('',(3.,0.05,16.0455827175008));
#617=CARTESIAN_POINT('',(0.,-0.11,0.));
#618=CARTESIAN_POINT('',(3.36,-0.11,11.52));
#619=CARTESIAN_POINT('',(3.36,0.,11.52));
#620=CARTESIAN_POINT('',(3.36,0.05,11.52));
#621=CARTESIAN_POINT('',(0.,0.,0.));
#622=CARTESIAN_POINT('',(0.,0.05,0.));
#623=CARTESIAN_POINT('',(3.5,-0.11,12.));
#624=CARTESIAN_POINT('',(3.5,0.,12.));
#625=CARTESIAN_POINT('',(3.5,0.05,12.));
#626=CARTESIAN_POINT('',(3.5,-0.11,12.));
#627=CARTESIAN_POINT('',(3.,-0.11,12.));
#628=CARTESIAN_POINT('',(3.36,-0.11,11.52));
#629=CARTESIAN_POINT('',(0.,-0.11,0.));
#630=CARTESIAN_POINT('',(-3.36,-0.11,11.52));
#631=CARTESIAN_POINT('',(-3.5,-0.11,12.));
#632=CARTESIAN_POINT('',(-3.,-0.11,12.));
#633=CARTESIAN_POINT('',(-3.,-0.11,15.12));
#634=CARTESIAN_POINT('',(-3.,-0.11,15.12));
#635=CARTESIAN_POINT('',(-3.,-0.11,15.12));
#636=CARTESIAN_POINT('',(-3.,0.,15.12));
#637=CARTESIAN_POINT('',(3.,-0.11,15.12));
#638=CARTESIAN_POINT('',(3.,-0.11,15.12));
#639=CARTESIAN_POINT('',(3.5,-0.11,12.));
#640=CARTESIAN_POINT('',(0.,0.05,16.0455827175008));
#641=CARTESIAN_POINT('',(0.,0.,16.0455827175008));
#642=CARTESIAN_POINT('',(0.,0.05,16.0455827175008));
#643=CARTESIAN_POINT('',(3.5,0.05,12.));
#644=CARTESIAN_POINT('',(3.5,0.,12.));
#645=MECHANICAL_DESIGN_GEOMETRIC_PRESENTATION_REPRESENTATION('',(#298,#299,
#300,#301,#302,#303,#304,#305,#306,#307,#308,#309,#310,#311,#312,#313,#314),
#646);
#646=(
GEOMETRIC_REPRESENTATION_CONTEXT(3)
GLOBAL_UNCERTAINTY_ASSIGNED_CONTEXT((#647))
GLOBAL_UNIT_ASSIGNED_CONTEXT((#650,#649,#648))
REPRESENTATION_CONTEXT('FXC.24.A','TOP_LEVEL_ASSEMBLY_PART')
);
#647=UNCERTAINTY_MEASURE_WITH_UNIT(LENGTH_MEASURE(0.005),#650,
'DISTANCE_ACCURACY_VALUE','Maximum Tolerance applied to model');
#648=(
NAMED_UNIT(*)
SI_UNIT($,.STERADIAN.)
SOLID_ANGLE_UNIT()
);
#649=(
NAMED_UNIT(*)
PLANE_ANGLE_UNIT()
SI_UNIT($,.RADIAN.)
);
#650=(
LENGTH_UNIT()
NAMED_UNIT(*)
SI_UNIT(.MILLI.,.METRE.)
);
#651=PRODUCT_DEFINITION_SHAPE('','',#652);
#652=PRODUCT_DEFINITION('','',#654,#653);
#653=PRODUCT_DEFINITION_CONTEXT('',#660,'design');
#654=PRODUCT_DEFINITION_FORMATION_WITH_SPECIFIED_SOURCE('','',#656,
 .NOT_KNOWN.);
#655=PRODUCT_RELATED_PRODUCT_CATEGORY('','',(#656));
#656=PRODUCT('FXC.24.A','FXC.24.A','FXC.24.A',(#658));
#657=PRODUCT_CATEGORY('','');
#658=PRODUCT_CONTEXT('',#660,'mechanical');
#659=APPLICATION_PROTOCOL_DEFINITION('international standard',
'automotive_design',2010,#660);
#660=APPLICATION_CONTEXT(
'core data for automotive mechanical design processes');
ENDSEC;
END-ISO-10303-21;
