ISO-10303-21;
HEADER;
FILE_DESCRIPTION(('KiCad electronic assembly'),'2;1');
FILE_NAME('spirulo-202601201631.step','2026-01-20T16:32:02',('Pcbnew'),(
    'Kicad'),'Open CASCADE STEP processor 7.8','KiCad to STEP converter'
  ,'Unknown');
FILE_SCHEMA(('AUTOMOTIVE_DESIGN { 1 0 10303 214 1 1 1 1 }'));
ENDSEC;
DATA;
#1 = APPLICATION_PROTOCOL_DEFINITION('international standard',
  'automotive_design',2000,#2);
#2 = APPLICATION_CONTEXT(
  'core data for automotive mechanical design processes');
#3 = SHAPE_DEFINITION_REPRESENTATION(#4,#10);
#4 = PRODUCT_DEFINITION_SHAPE('','',#5);
#5 = PRODUCT_DEFINITION('design','',#6,#9);
#6 = PRODUCT_DEFINITION_FORMATION('','',#7);
#7 = PRODUCT('spirulo-202601201631 1','spirulo-202601201631 1','',(#8));
#8 = PRODUCT_CONTEXT('',#2,'mechanical');
#9 = PRODUCT_DEFINITION_CONTEXT('part definition',#2,'design');
#10 = SHAPE_REPRESENTATION('',(#11,#15,#19,#23,#27),#31);
#11 = AXIS2_PLACEMENT_3D('',#12,#13,#14);
#12 = CARTESIAN_POINT('',(0.,0.,0.));
#13 = DIRECTION('',(0.,0.,1.));
#14 = DIRECTION('',(1.,0.,-0.));
#15 = AXIS2_PLACEMENT_3D('',#16,#17,#18);
#16 = CARTESIAN_POINT('',(0.,0.,0.));
#17 = DIRECTION('',(0.,0.,1.));
#18 = DIRECTION('',(1.,0.,-0.));
#19 = AXIS2_PLACEMENT_3D('',#20,#21,#22);
#20 = CARTESIAN_POINT('',(0.,0.,0.));
#21 = DIRECTION('',(0.,0.,1.));
#22 = DIRECTION('',(1.,0.,-0.));
#23 = AXIS2_PLACEMENT_3D('',#24,#25,#26);
#24 = CARTESIAN_POINT('',(0.,0.,0.));
#25 = DIRECTION('',(0.,0.,1.));
#26 = DIRECTION('',(1.,0.,-0.));
#27 = AXIS2_PLACEMENT_3D('',#28,#29,#30);
#28 = CARTESIAN_POINT('',(0.,0.,0.));
#29 = DIRECTION('',(0.,0.,1.));
#30 = DIRECTION('',(1.,0.,-0.));
#31 = ( GEOMETRIC_REPRESENTATION_CONTEXT(3) 
GLOBAL_UNCERTAINTY_ASSIGNED_CONTEXT((#35)) GLOBAL_UNIT_ASSIGNED_CONTEXT(
(#32,#33,#34)) REPRESENTATION_CONTEXT('Context #1',
  '3D Context with UNIT and UNCERTAINTY') );
#32 = ( LENGTH_UNIT() NAMED_UNIT(*) SI_UNIT(.MILLI.,.METRE.) );
#33 = ( NAMED_UNIT(*) PLANE_ANGLE_UNIT() SI_UNIT($,.RADIAN.) );
#34 = ( NAMED_UNIT(*) SI_UNIT($,.STERADIAN.) SOLID_ANGLE_UNIT() );
#35 = UNCERTAINTY_MEASURE_WITH_UNIT(LENGTH_MEASURE(1.E-07),#32,
  'distance_accuracy_value','confusion accuracy');
#36 = PRODUCT_RELATED_PRODUCT_CATEGORY('part',$,(#7));
#37 = SHAPE_DEFINITION_REPRESENTATION(#38,#44);
#38 = PRODUCT_DEFINITION_SHAPE('','',#39);
#39 = PRODUCT_DEFINITION('design','',#40,#43);
#40 = PRODUCT_DEFINITION_FORMATION('','',#41);
#41 = PRODUCT('spirulo-hw_copper','spirulo-hw_copper','',(#42));
#42 = PRODUCT_CONTEXT('',#2,'mechanical');
#43 = PRODUCT_DEFINITION_CONTEXT('part definition',#2,'design');
#44 = SHAPE_REPRESENTATION('',(#11,#45,#98,#248,#301,#451,#601),#751);
#45 = MANIFOLD_SOLID_BREP('',#46);
#46 = CLOSED_SHELL('',(#47,#80,#89));
#47 = ADVANCED_FACE('',(#48),#75,.T.);
#48 = FACE_BOUND('',#49,.F.);
#49 = EDGE_LOOP('',(#50,#60,#67,#68));
#50 = ORIENTED_EDGE('',*,*,#51,.T.);
#51 = EDGE_CURVE('',#52,#54,#56,.T.);
#52 = VERTEX_POINT('',#53);
#53 = CARTESIAN_POINT('',(-4.850232,0.695231,0.71));
#54 = VERTEX_POINT('',#55);
#55 = CARTESIAN_POINT('',(-4.850232,0.695231,0.75));
#56 = LINE('',#57,#58);
#57 = CARTESIAN_POINT('',(-4.850232,0.695231,0.71));
#58 = VECTOR('',#59,1.);
#59 = DIRECTION('',(0.,0.,1.));
#60 = ORIENTED_EDGE('',*,*,#61,.T.);
#61 = EDGE_CURVE('',#54,#54,#62,.T.);
#62 = CIRCLE('',#63,0.149999);
#63 = AXIS2_PLACEMENT_3D('',#64,#65,#66);
#64 = CARTESIAN_POINT('',(-5.000231,0.695231,0.75));
#65 = DIRECTION('',(0.,0.,1.));
#66 = DIRECTION('',(1.,0.,-0.));
#67 = ORIENTED_EDGE('',*,*,#51,.F.);
#68 = ORIENTED_EDGE('',*,*,#69,.F.);
#69 = EDGE_CURVE('',#52,#52,#70,.T.);
#70 = CIRCLE('',#71,0.149999);
#71 = AXIS2_PLACEMENT_3D('',#72,#73,#74);
#72 = CARTESIAN_POINT('',(-5.000231,0.695231,0.71));
#73 = DIRECTION('',(0.,0.,1.));
#74 = DIRECTION('',(1.,0.,-0.));
#75 = CYLINDRICAL_SURFACE('',#76,0.149999);
#76 = AXIS2_PLACEMENT_3D('',#77,#78,#79);
#77 = CARTESIAN_POINT('',(-5.000231,0.695231,0.71));
#78 = DIRECTION('',(-0.,-0.,-1.));
#79 = DIRECTION('',(1.,0.,-0.));
#80 = ADVANCED_FACE('',(#81),#84,.F.);
#81 = FACE_BOUND('',#82,.F.);
#82 = EDGE_LOOP('',(#83));
#83 = ORIENTED_EDGE('',*,*,#69,.T.);
#84 = PLANE('',#85);
#85 = AXIS2_PLACEMENT_3D('',#86,#87,#88);
#86 = CARTESIAN_POINT('',(0.,0.,0.71));
#87 = DIRECTION('',(0.,0.,1.));
#88 = DIRECTION('',(1.,0.,-0.));
#89 = ADVANCED_FACE('',(#90),#93,.T.);
#90 = FACE_BOUND('',#91,.T.);
#91 = EDGE_LOOP('',(#92));
#92 = ORIENTED_EDGE('',*,*,#61,.T.);
#93 = PLANE('',#94);
#94 = AXIS2_PLACEMENT_3D('',#95,#96,#97);
#95 = CARTESIAN_POINT('',(0.,0.,0.75));
#96 = DIRECTION('',(0.,0.,1.));
#97 = DIRECTION('',(1.,0.,-0.));
#98 = MANIFOLD_SOLID_BREP('',#99);
#99 = CLOSED_SHELL('',(#100,#140,#171,#202,#224,#236));
#100 = ADVANCED_FACE('',(#101),#135,.F.);
#101 = FACE_BOUND('',#102,.F.);
#102 = EDGE_LOOP('',(#103,#113,#121,#129));
#103 = ORIENTED_EDGE('',*,*,#104,.T.);
#104 = EDGE_CURVE('',#105,#107,#109,.T.);
#105 = VERTEX_POINT('',#106);
#106 = CARTESIAN_POINT('',(-0.625231,6.635231,0.));
#107 = VERTEX_POINT('',#108);
#108 = CARTESIAN_POINT('',(-0.625231,6.635231,-4.E-02));
#109 = LINE('',#110,#111);
#110 = CARTESIAN_POINT('',(-0.625231,6.635231,0.));
#111 = VECTOR('',#112,1.);
#112 = DIRECTION('',(0.,0.,-1.));
#113 = ORIENTED_EDGE('',*,*,#114,.T.);
#114 = EDGE_CURVE('',#107,#115,#117,.T.);
#115 = VERTEX_POINT('',#116);
#116 = CARTESIAN_POINT('',(-0.625231,10.635231,-4.E-02));
#117 = LINE('',#118,#119);
#118 = CARTESIAN_POINT('',(-0.625231,6.635231,-4.E-02));
#119 = VECTOR('',#120,1.);
#120 = DIRECTION('',(0.,1.,0.));
#121 = ORIENTED_EDGE('',*,*,#122,.F.);
#122 = EDGE_CURVE('',#123,#115,#125,.T.);
#123 = VERTEX_POINT('',#124);
#124 = CARTESIAN_POINT('',(-0.625231,10.635231,0.));
#125 = LINE('',#126,#127);
#126 = CARTESIAN_POINT('',(-0.625231,10.635231,0.));
#127 = VECTOR('',#128,1.);
#128 = DIRECTION('',(0.,0.,-1.));
#129 = ORIENTED_EDGE('',*,*,#130,.F.);
#130 = EDGE_CURVE('',#105,#123,#131,.T.);
#131 = LINE('',#132,#133);
#132 = CARTESIAN_POINT('',(-0.625231,6.635231,0.));
#133 = VECTOR('',#134,1.);
#134 = DIRECTION('',(0.,1.,0.));
#135 = PLANE('',#136);
#136 = AXIS2_PLACEMENT_3D('',#137,#138,#139);
#137 = CARTESIAN_POINT('',(-0.625231,6.635231,0.));
#138 = DIRECTION('',(1.,-0.,0.));
#139 = DIRECTION('',(0.,1.,0.));
#140 = ADVANCED_FACE('',(#141),#166,.F.);
#141 = FACE_BOUND('',#142,.F.);
#142 = EDGE_LOOP('',(#143,#144,#152,#160));
#143 = ORIENTED_EDGE('',*,*,#122,.T.);
#144 = ORIENTED_EDGE('',*,*,#145,.T.);
#145 = EDGE_CURVE('',#115,#146,#148,.T.);
#146 = VERTEX_POINT('',#147);
#147 = CARTESIAN_POINT('',(0.374769,10.635231,-4.E-02));
#148 = LINE('',#149,#150);
#149 = CARTESIAN_POINT('',(-0.625231,10.635231,-4.E-02));
#150 = VECTOR('',#151,1.);
#151 = DIRECTION('',(1.,0.,0.));
#152 = ORIENTED_EDGE('',*,*,#153,.F.);
#153 = EDGE_CURVE('',#154,#146,#156,.T.);
#154 = VERTEX_POINT('',#155);
#155 = CARTESIAN_POINT('',(0.374769,10.635231,0.));
#156 = LINE('',#157,#158);
#157 = CARTESIAN_POINT('',(0.374769,10.635231,0.));
#158 = VECTOR('',#159,1.);
#159 = DIRECTION('',(0.,0.,-1.));
#160 = ORIENTED_EDGE('',*,*,#161,.F.);
#161 = EDGE_CURVE('',#123,#154,#162,.T.);
#162 = LINE('',#163,#164);
#163 = CARTESIAN_POINT('',(-0.625231,10.635231,0.));
#164 = VECTOR('',#165,1.);
#165 = DIRECTION('',(1.,0.,0.));
#166 = PLANE('',#167);
#167 = AXIS2_PLACEMENT_3D('',#168,#169,#170);
#168 = CARTESIAN_POINT('',(-0.625231,10.635231,0.));
#169 = DIRECTION('',(0.,-1.,0.));
#170 = DIRECTION('',(1.,0.,0.));
#171 = ADVANCED_FACE('',(#172),#197,.F.);
#172 = FACE_BOUND('',#173,.F.);
#173 = EDGE_LOOP('',(#174,#175,#183,#191));
#174 = ORIENTED_EDGE('',*,*,#153,.T.);
#175 = ORIENTED_EDGE('',*,*,#176,.T.);
#176 = EDGE_CURVE('',#146,#177,#179,.T.);
#177 = VERTEX_POINT('',#178);
#178 = CARTESIAN_POINT('',(0.374769,6.635231,-4.E-02));
#179 = LINE('',#180,#181);
#180 = CARTESIAN_POINT('',(0.374769,10.635231,-4.E-02));
#181 = VECTOR('',#182,1.);
#182 = DIRECTION('',(0.,-1.,0.));
#183 = ORIENTED_EDGE('',*,*,#184,.F.);
#184 = EDGE_CURVE('',#185,#177,#187,.T.);
#185 = VERTEX_POINT('',#186);
#186 = CARTESIAN_POINT('',(0.374769,6.635231,0.));
#187 = LINE('',#188,#189);
#188 = CARTESIAN_POINT('',(0.374769,6.635231,0.));
#189 = VECTOR('',#190,1.);
#190 = DIRECTION('',(0.,0.,-1.));
#191 = ORIENTED_EDGE('',*,*,#192,.F.);
#192 = EDGE_CURVE('',#154,#185,#193,.T.);
#193 = LINE('',#194,#195);
#194 = CARTESIAN_POINT('',(0.374769,10.635231,0.));
#195 = VECTOR('',#196,1.);
#196 = DIRECTION('',(0.,-1.,0.));
#197 = PLANE('',#198);
#198 = AXIS2_PLACEMENT_3D('',#199,#200,#201);
#199 = CARTESIAN_POINT('',(0.374769,10.635231,0.));
#200 = DIRECTION('',(-1.,-0.,-0.));
#201 = DIRECTION('',(0.,-1.,0.));
#202 = ADVANCED_FACE('',(#203),#219,.F.);
#203 = FACE_BOUND('',#204,.F.);
#204 = EDGE_LOOP('',(#205,#206,#212,#213));
#205 = ORIENTED_EDGE('',*,*,#184,.T.);
#206 = ORIENTED_EDGE('',*,*,#207,.T.);
#207 = EDGE_CURVE('',#177,#107,#208,.T.);
#208 = LINE('',#209,#210);
#209 = CARTESIAN_POINT('',(0.374769,6.635231,-4.E-02));
#210 = VECTOR('',#211,1.);
#211 = DIRECTION('',(-1.,0.,0.));
#212 = ORIENTED_EDGE('',*,*,#104,.F.);
#213 = ORIENTED_EDGE('',*,*,#214,.F.);
#214 = EDGE_CURVE('',#185,#105,#215,.T.);
#215 = LINE('',#216,#217);
#216 = CARTESIAN_POINT('',(0.374769,6.635231,0.));
#217 = VECTOR('',#218,1.);
#218 = DIRECTION('',(-1.,0.,0.));
#219 = PLANE('',#220);
#220 = AXIS2_PLACEMENT_3D('',#221,#222,#223);
#221 = CARTESIAN_POINT('',(0.374769,6.635231,0.));
#222 = DIRECTION('',(0.,1.,0.));
#223 = DIRECTION('',(-1.,0.,0.));
#224 = ADVANCED_FACE('',(#225),#231,.F.);
#225 = FACE_BOUND('',#226,.F.);
#226 = EDGE_LOOP('',(#227,#228,#229,#230));
#227 = ORIENTED_EDGE('',*,*,#130,.T.);
#228 = ORIENTED_EDGE('',*,*,#161,.T.);
#229 = ORIENTED_EDGE('',*,*,#192,.T.);
#230 = ORIENTED_EDGE('',*,*,#214,.T.);
#231 = PLANE('',#232);
#232 = AXIS2_PLACEMENT_3D('',#233,#234,#235);
#233 = CARTESIAN_POINT('',(0.,0.,0.));
#234 = DIRECTION('',(-0.,-0.,-1.));
#235 = DIRECTION('',(-1.,0.,0.));
#236 = ADVANCED_FACE('',(#237),#243,.T.);
#237 = FACE_BOUND('',#238,.T.);
#238 = EDGE_LOOP('',(#239,#240,#241,#242));
#239 = ORIENTED_EDGE('',*,*,#114,.T.);
#240 = ORIENTED_EDGE('',*,*,#145,.T.);
#241 = ORIENTED_EDGE('',*,*,#176,.T.);
#242 = ORIENTED_EDGE('',*,*,#207,.T.);
#243 = PLANE('',#244);
#244 = AXIS2_PLACEMENT_3D('',#245,#246,#247);
#245 = CARTESIAN_POINT('',(0.,0.,-4.E-02));
#246 = DIRECTION('',(-0.,-0.,-1.));
#247 = DIRECTION('',(-1.,0.,0.));
#248 = MANIFOLD_SOLID_BREP('',#249);
#249 = CLOSED_SHELL('',(#250,#283,#292));
#250 = ADVANCED_FACE('',(#251),#278,.T.);
#251 = FACE_BOUND('',#252,.F.);
#252 = EDGE_LOOP('',(#253,#263,#270,#271));
#253 = ORIENTED_EDGE('',*,*,#254,.T.);
#254 = EDGE_CURVE('',#255,#257,#259,.T.);
#255 = VERTEX_POINT('',#256);
#256 = CARTESIAN_POINT('',(-9.260232,1.045231,0.71));
#257 = VERTEX_POINT('',#258);
#258 = CARTESIAN_POINT('',(-9.260232,1.045231,0.75));
#259 = LINE('',#260,#261);
#260 = CARTESIAN_POINT('',(-9.260232,1.045231,0.71));
#261 = VECTOR('',#262,1.);
#262 = DIRECTION('',(0.,0.,1.));
#263 = ORIENTED_EDGE('',*,*,#264,.T.);
#264 = EDGE_CURVE('',#257,#257,#265,.T.);
#265 = CIRCLE('',#266,0.149999);
#266 = AXIS2_PLACEMENT_3D('',#267,#268,#269);
#267 = CARTESIAN_POINT('',(-9.410231,1.045231,0.75));
#268 = DIRECTION('',(0.,0.,1.));
#269 = DIRECTION('',(1.,0.,-0.));
#270 = ORIENTED_EDGE('',*,*,#254,.F.);
#271 = ORIENTED_EDGE('',*,*,#272,.F.);
#272 = EDGE_CURVE('',#255,#255,#273,.T.);
#273 = CIRCLE('',#274,0.149999);
#274 = AXIS2_PLACEMENT_3D('',#275,#276,#277);
#275 = CARTESIAN_POINT('',(-9.410231,1.045231,0.71));
#276 = DIRECTION('',(0.,0.,1.));
#277 = DIRECTION('',(1.,0.,-0.));
#278 = CYLINDRICAL_SURFACE('',#279,0.149999);
#279 = AXIS2_PLACEMENT_3D('',#280,#281,#282);
#280 = CARTESIAN_POINT('',(-9.410231,1.045231,0.71));
#281 = DIRECTION('',(-0.,-0.,-1.));
#282 = DIRECTION('',(1.,0.,-0.));
#283 = ADVANCED_FACE('',(#284),#287,.F.);
#284 = FACE_BOUND('',#285,.F.);
#285 = EDGE_LOOP('',(#286));
#286 = ORIENTED_EDGE('',*,*,#272,.T.);
#287 = PLANE('',#288);
#288 = AXIS2_PLACEMENT_3D('',#289,#290,#291);
#289 = CARTESIAN_POINT('',(0.,0.,0.71));
#290 = DIRECTION('',(0.,0.,1.));
#291 = DIRECTION('',(1.,0.,-0.));
#292 = ADVANCED_FACE('',(#293),#296,.T.);
#293 = FACE_BOUND('',#294,.T.);
#294 = EDGE_LOOP('',(#295));
#295 = ORIENTED_EDGE('',*,*,#264,.T.);
#296 = PLANE('',#297);
#297 = AXIS2_PLACEMENT_3D('',#298,#299,#300);
#298 = CARTESIAN_POINT('',(0.,0.,0.75));
#299 = DIRECTION('',(0.,0.,1.));
#300 = DIRECTION('',(1.,0.,-0.));
#301 = MANIFOLD_SOLID_BREP('',#302);
#302 = CLOSED_SHELL('',(#303,#343,#374,#405,#427,#439));
#303 = ADVANCED_FACE('',(#304),#338,.F.);
#304 = FACE_BOUND('',#305,.F.);
#305 = EDGE_LOOP('',(#306,#316,#324,#332));
#306 = ORIENTED_EDGE('',*,*,#307,.T.);
#307 = EDGE_CURVE('',#308,#310,#312,.T.);
#308 = VERTEX_POINT('',#309);
#309 = CARTESIAN_POINT('',(-2.625231,6.635231,0.));
#310 = VERTEX_POINT('',#311);
#311 = CARTESIAN_POINT('',(-2.625231,6.635231,-4.E-02));
#312 = LINE('',#313,#314);
#313 = CARTESIAN_POINT('',(-2.625231,6.635231,0.));
#314 = VECTOR('',#315,1.);
#315 = DIRECTION('',(0.,0.,-1.));
#316 = ORIENTED_EDGE('',*,*,#317,.T.);
#317 = EDGE_CURVE('',#310,#318,#320,.T.);
#318 = VERTEX_POINT('',#319);
#319 = CARTESIAN_POINT('',(-2.625231,10.635231,-4.E-02));
#320 = LINE('',#321,#322);
#321 = CARTESIAN_POINT('',(-2.625231,6.635231,-4.E-02));
#322 = VECTOR('',#323,1.);
#323 = DIRECTION('',(0.,1.,0.));
#324 = ORIENTED_EDGE('',*,*,#325,.F.);
#325 = EDGE_CURVE('',#326,#318,#328,.T.);
#326 = VERTEX_POINT('',#327);
#327 = CARTESIAN_POINT('',(-2.625231,10.635231,0.));
#328 = LINE('',#329,#330);
#329 = CARTESIAN_POINT('',(-2.625231,10.635231,0.));
#330 = VECTOR('',#331,1.);
#331 = DIRECTION('',(0.,0.,-1.));
#332 = ORIENTED_EDGE('',*,*,#333,.F.);
#333 = EDGE_CURVE('',#308,#326,#334,.T.);
#334 = LINE('',#335,#336);
#335 = CARTESIAN_POINT('',(-2.625231,6.635231,0.));
#336 = VECTOR('',#337,1.);
#337 = DIRECTION('',(0.,1.,0.));
#338 = PLANE('',#339);
#339 = AXIS2_PLACEMENT_3D('',#340,#341,#342);
#340 = CARTESIAN_POINT('',(-2.625231,6.635231,0.));
#341 = DIRECTION('',(1.,-0.,0.));
#342 = DIRECTION('',(0.,1.,0.));
#343 = ADVANCED_FACE('',(#344),#369,.F.);
#344 = FACE_BOUND('',#345,.F.);
#345 = EDGE_LOOP('',(#346,#347,#355,#363));
#346 = ORIENTED_EDGE('',*,*,#325,.T.);
#347 = ORIENTED_EDGE('',*,*,#348,.T.);
#348 = EDGE_CURVE('',#318,#349,#351,.T.);
#349 = VERTEX_POINT('',#350);
#350 = CARTESIAN_POINT('',(-1.625231,10.635231,-4.E-02));
#351 = LINE('',#352,#353);
#352 = CARTESIAN_POINT('',(-2.625231,10.635231,-4.E-02));
#353 = VECTOR('',#354,1.);
#354 = DIRECTION('',(1.,0.,0.));
#355 = ORIENTED_EDGE('',*,*,#356,.F.);
#356 = EDGE_CURVE('',#357,#349,#359,.T.);
#357 = VERTEX_POINT('',#358);
#358 = CARTESIAN_POINT('',(-1.625231,10.635231,0.));
#359 = LINE('',#360,#361);
#360 = CARTESIAN_POINT('',(-1.625231,10.635231,0.));
#361 = VECTOR('',#362,1.);
#362 = DIRECTION('',(0.,0.,-1.));
#363 = ORIENTED_EDGE('',*,*,#364,.F.);
#364 = EDGE_CURVE('',#326,#357,#365,.T.);
#365 = LINE('',#366,#367);
#366 = CARTESIAN_POINT('',(-2.625231,10.635231,0.));
#367 = VECTOR('',#368,1.);
#368 = DIRECTION('',(1.,0.,0.));
#369 = PLANE('',#370);
#370 = AXIS2_PLACEMENT_3D('',#371,#372,#373);
#371 = CARTESIAN_POINT('',(-2.625231,10.635231,0.));
#372 = DIRECTION('',(0.,-1.,0.));
#373 = DIRECTION('',(1.,0.,0.));
#374 = ADVANCED_FACE('',(#375),#400,.F.);
#375 = FACE_BOUND('',#376,.F.);
#376 = EDGE_LOOP('',(#377,#378,#386,#394));
#377 = ORIENTED_EDGE('',*,*,#356,.T.);
#378 = ORIENTED_EDGE('',*,*,#379,.T.);
#379 = EDGE_CURVE('',#349,#380,#382,.T.);
#380 = VERTEX_POINT('',#381);
#381 = CARTESIAN_POINT('',(-1.625231,6.635231,-4.E-02));
#382 = LINE('',#383,#384);
#383 = CARTESIAN_POINT('',(-1.625231,10.635231,-4.E-02));
#384 = VECTOR('',#385,1.);
#385 = DIRECTION('',(0.,-1.,0.));
#386 = ORIENTED_EDGE('',*,*,#387,.F.);
#387 = EDGE_CURVE('',#388,#380,#390,.T.);
#388 = VERTEX_POINT('',#389);
#389 = CARTESIAN_POINT('',(-1.625231,6.635231,0.));
#390 = LINE('',#391,#392);
#391 = CARTESIAN_POINT('',(-1.625231,6.635231,0.));
#392 = VECTOR('',#393,1.);
#393 = DIRECTION('',(0.,0.,-1.));
#394 = ORIENTED_EDGE('',*,*,#395,.F.);
#395 = EDGE_CURVE('',#357,#388,#396,.T.);
#396 = LINE('',#397,#398);
#397 = CARTESIAN_POINT('',(-1.625231,10.635231,0.));
#398 = VECTOR('',#399,1.);
#399 = DIRECTION('',(0.,-1.,0.));
#400 = PLANE('',#401);
#401 = AXIS2_PLACEMENT_3D('',#402,#403,#404);
#402 = CARTESIAN_POINT('',(-1.625231,10.635231,0.));
#403 = DIRECTION('',(-1.,-0.,-0.));
#404 = DIRECTION('',(0.,-1.,0.));
#405 = ADVANCED_FACE('',(#406),#422,.F.);
#406 = FACE_BOUND('',#407,.F.);
#407 = EDGE_LOOP('',(#408,#409,#415,#416));
#408 = ORIENTED_EDGE('',*,*,#387,.T.);
#409 = ORIENTED_EDGE('',*,*,#410,.T.);
#410 = EDGE_CURVE('',#380,#310,#411,.T.);
#411 = LINE('',#412,#413);
#412 = CARTESIAN_POINT('',(-1.625231,6.635231,-4.E-02));
#413 = VECTOR('',#414,1.);
#414 = DIRECTION('',(-1.,0.,0.));
#415 = ORIENTED_EDGE('',*,*,#307,.F.);
#416 = ORIENTED_EDGE('',*,*,#417,.F.);
#417 = EDGE_CURVE('',#388,#308,#418,.T.);
#418 = LINE('',#419,#420);
#419 = CARTESIAN_POINT('',(-1.625231,6.635231,0.));
#420 = VECTOR('',#421,1.);
#421 = DIRECTION('',(-1.,0.,0.));
#422 = PLANE('',#423);
#423 = AXIS2_PLACEMENT_3D('',#424,#425,#426);
#424 = CARTESIAN_POINT('',(-1.625231,6.635231,0.));
#425 = DIRECTION('',(0.,1.,0.));
#426 = DIRECTION('',(-1.,0.,0.));
#427 = ADVANCED_FACE('',(#428),#434,.F.);
#428 = FACE_BOUND('',#429,.F.);
#429 = EDGE_LOOP('',(#430,#431,#432,#433));
#430 = ORIENTED_EDGE('',*,*,#333,.T.);
#431 = ORIENTED_EDGE('',*,*,#364,.T.);
#432 = ORIENTED_EDGE('',*,*,#395,.T.);
#433 = ORIENTED_EDGE('',*,*,#417,.T.);
#434 = PLANE('',#435);
#435 = AXIS2_PLACEMENT_3D('',#436,#437,#438);
#436 = CARTESIAN_POINT('',(0.,0.,0.));
#437 = DIRECTION('',(-0.,-0.,-1.));
#438 = DIRECTION('',(-1.,0.,0.));
#439 = ADVANCED_FACE('',(#440),#446,.T.);
#440 = FACE_BOUND('',#441,.T.);
#441 = EDGE_LOOP('',(#442,#443,#444,#445));
#442 = ORIENTED_EDGE('',*,*,#317,.T.);
#443 = ORIENTED_EDGE('',*,*,#348,.T.);
#444 = ORIENTED_EDGE('',*,*,#379,.T.);
#445 = ORIENTED_EDGE('',*,*,#410,.T.);
#446 = PLANE('',#447);
#447 = AXIS2_PLACEMENT_3D('',#448,#449,#450);
#448 = CARTESIAN_POINT('',(0.,0.,-4.E-02));
#449 = DIRECTION('',(-0.,-0.,-1.));
#450 = DIRECTION('',(-1.,0.,0.));
#451 = MANIFOLD_SOLID_BREP('',#452);
#452 = CLOSED_SHELL('',(#453,#493,#524,#555,#577,#589));
#453 = ADVANCED_FACE('',(#454),#488,.F.);
#454 = FACE_BOUND('',#455,.F.);
#455 = EDGE_LOOP('',(#456,#466,#474,#482));
#456 = ORIENTED_EDGE('',*,*,#457,.T.);
#457 = EDGE_CURVE('',#458,#460,#462,.T.);
#458 = VERTEX_POINT('',#459);
#459 = CARTESIAN_POINT('',(1.374769,6.635231,0.));
#460 = VERTEX_POINT('',#461);
#461 = CARTESIAN_POINT('',(1.374769,6.635231,-4.E-02));
#462 = LINE('',#463,#464);
#463 = CARTESIAN_POINT('',(1.374769,6.635231,0.));
#464 = VECTOR('',#465,1.);
#465 = DIRECTION('',(0.,0.,-1.));
#466 = ORIENTED_EDGE('',*,*,#467,.T.);
#467 = EDGE_CURVE('',#460,#468,#470,.T.);
#468 = VERTEX_POINT('',#469);
#469 = CARTESIAN_POINT('',(1.374769,10.635231,-4.E-02));
#470 = LINE('',#471,#472);
#471 = CARTESIAN_POINT('',(1.374769,6.635231,-4.E-02));
#472 = VECTOR('',#473,1.);
#473 = DIRECTION('',(0.,1.,0.));
#474 = ORIENTED_EDGE('',*,*,#475,.F.);
#475 = EDGE_CURVE('',#476,#468,#478,.T.);
#476 = VERTEX_POINT('',#477);
#477 = CARTESIAN_POINT('',(1.374769,10.635231,0.));
#478 = LINE('',#479,#480);
#479 = CARTESIAN_POINT('',(1.374769,10.635231,0.));
#480 = VECTOR('',#481,1.);
#481 = DIRECTION('',(0.,0.,-1.));
#482 = ORIENTED_EDGE('',*,*,#483,.F.);
#483 = EDGE_CURVE('',#458,#476,#484,.T.);
#484 = LINE('',#485,#486);
#485 = CARTESIAN_POINT('',(1.374769,6.635231,0.));
#486 = VECTOR('',#487,1.);
#487 = DIRECTION('',(0.,1.,0.));
#488 = PLANE('',#489);
#489 = AXIS2_PLACEMENT_3D('',#490,#491,#492);
#490 = CARTESIAN_POINT('',(1.374769,6.635231,0.));
#491 = DIRECTION('',(1.,-0.,0.));
#492 = DIRECTION('',(0.,1.,0.));
#493 = ADVANCED_FACE('',(#494),#519,.F.);
#494 = FACE_BOUND('',#495,.F.);
#495 = EDGE_LOOP('',(#496,#497,#505,#513));
#496 = ORIENTED_EDGE('',*,*,#475,.T.);
#497 = ORIENTED_EDGE('',*,*,#498,.T.);
#498 = EDGE_CURVE('',#468,#499,#501,.T.);
#499 = VERTEX_POINT('',#500);
#500 = CARTESIAN_POINT('',(2.374769,10.635231,-4.E-02));
#501 = LINE('',#502,#503);
#502 = CARTESIAN_POINT('',(1.374769,10.635231,-4.E-02));
#503 = VECTOR('',#504,1.);
#504 = DIRECTION('',(1.,0.,0.));
#505 = ORIENTED_EDGE('',*,*,#506,.F.);
#506 = EDGE_CURVE('',#507,#499,#509,.T.);
#507 = VERTEX_POINT('',#508);
#508 = CARTESIAN_POINT('',(2.374769,10.635231,0.));
#509 = LINE('',#510,#511);
#510 = CARTESIAN_POINT('',(2.374769,10.635231,0.));
#511 = VECTOR('',#512,1.);
#512 = DIRECTION('',(0.,0.,-1.));
#513 = ORIENTED_EDGE('',*,*,#514,.F.);
#514 = EDGE_CURVE('',#476,#507,#515,.T.);
#515 = LINE('',#516,#517);
#516 = CARTESIAN_POINT('',(1.374769,10.635231,0.));
#517 = VECTOR('',#518,1.);
#518 = DIRECTION('',(1.,0.,0.));
#519 = PLANE('',#520);
#520 = AXIS2_PLACEMENT_3D('',#521,#522,#523);
#521 = CARTESIAN_POINT('',(1.374769,10.635231,0.));
#522 = DIRECTION('',(0.,-1.,0.));
#523 = DIRECTION('',(1.,0.,0.));
#524 = ADVANCED_FACE('',(#525),#550,.F.);
#525 = FACE_BOUND('',#526,.F.);
#526 = EDGE_LOOP('',(#527,#528,#536,#544));
#527 = ORIENTED_EDGE('',*,*,#506,.T.);
#528 = ORIENTED_EDGE('',*,*,#529,.T.);
#529 = EDGE_CURVE('',#499,#530,#532,.T.);
#530 = VERTEX_POINT('',#531);
#531 = CARTESIAN_POINT('',(2.374769,6.635231,-4.E-02));
#532 = LINE('',#533,#534);
#533 = CARTESIAN_POINT('',(2.374769,10.635231,-4.E-02));
#534 = VECTOR('',#535,1.);
#535 = DIRECTION('',(0.,-1.,0.));
#536 = ORIENTED_EDGE('',*,*,#537,.F.);
#537 = EDGE_CURVE('',#538,#530,#540,.T.);
#538 = VERTEX_POINT('',#539);
#539 = CARTESIAN_POINT('',(2.374769,6.635231,0.));
#540 = LINE('',#541,#542);
#541 = CARTESIAN_POINT('',(2.374769,6.635231,0.));
#542 = VECTOR('',#543,1.);
#543 = DIRECTION('',(0.,0.,-1.));
#544 = ORIENTED_EDGE('',*,*,#545,.F.);
#545 = EDGE_CURVE('',#507,#538,#546,.T.);
#546 = LINE('',#547,#548);
#547 = CARTESIAN_POINT('',(2.374769,10.635231,0.));
#548 = VECTOR('',#549,1.);
#549 = DIRECTION('',(0.,-1.,0.));
#550 = PLANE('',#551);
#551 = AXIS2_PLACEMENT_3D('',#552,#553,#554);
#552 = CARTESIAN_POINT('',(2.374769,10.635231,0.));
#553 = DIRECTION('',(-1.,-0.,-0.));
#554 = DIRECTION('',(0.,-1.,0.));
#555 = ADVANCED_FACE('',(#556),#572,.F.);
#556 = FACE_BOUND('',#557,.F.);
#557 = EDGE_LOOP('',(#558,#559,#565,#566));
#558 = ORIENTED_EDGE('',*,*,#537,.T.);
#559 = ORIENTED_EDGE('',*,*,#560,.T.);
#560 = EDGE_CURVE('',#530,#460,#561,.T.);
#561 = LINE('',#562,#563);
#562 = CARTESIAN_POINT('',(2.374769,6.635231,-4.E-02));
#563 = VECTOR('',#564,1.);
#564 = DIRECTION('',(-1.,0.,0.));
#565 = ORIENTED_EDGE('',*,*,#457,.F.);
#566 = ORIENTED_EDGE('',*,*,#567,.F.);
#567 = EDGE_CURVE('',#538,#458,#568,.T.);
#568 = LINE('',#569,#570);
#569 = CARTESIAN_POINT('',(2.374769,6.635231,0.));
#570 = VECTOR('',#571,1.);
#571 = DIRECTION('',(-1.,0.,0.));
#572 = PLANE('',#573);
#573 = AXIS2_PLACEMENT_3D('',#574,#575,#576);
#574 = CARTESIAN_POINT('',(2.374769,6.635231,0.));
#575 = DIRECTION('',(0.,1.,0.));
#576 = DIRECTION('',(-1.,0.,0.));
#577 = ADVANCED_FACE('',(#578),#584,.F.);
#578 = FACE_BOUND('',#579,.F.);
#579 = EDGE_LOOP('',(#580,#581,#582,#583));
#580 = ORIENTED_EDGE('',*,*,#483,.T.);
#581 = ORIENTED_EDGE('',*,*,#514,.T.);
#582 = ORIENTED_EDGE('',*,*,#545,.T.);
#583 = ORIENTED_EDGE('',*,*,#567,.T.);
#584 = PLANE('',#585);
#585 = AXIS2_PLACEMENT_3D('',#586,#587,#588);
#586 = CARTESIAN_POINT('',(0.,0.,0.));
#587 = DIRECTION('',(-0.,-0.,-1.));
#588 = DIRECTION('',(-1.,0.,0.));
#589 = ADVANCED_FACE('',(#590),#596,.T.);
#590 = FACE_BOUND('',#591,.T.);
#591 = EDGE_LOOP('',(#592,#593,#594,#595));
#592 = ORIENTED_EDGE('',*,*,#467,.T.);
#593 = ORIENTED_EDGE('',*,*,#498,.T.);
#594 = ORIENTED_EDGE('',*,*,#529,.T.);
#595 = ORIENTED_EDGE('',*,*,#560,.T.);
#596 = PLANE('',#597);
#597 = AXIS2_PLACEMENT_3D('',#598,#599,#600);
#598 = CARTESIAN_POINT('',(0.,0.,-4.E-02));
#599 = DIRECTION('',(-0.,-0.,-1.));
#600 = DIRECTION('',(-1.,0.,0.));
#601 = MANIFOLD_SOLID_BREP('',#602);
#602 = CLOSED_SHELL('',(#603,#643,#674,#705,#727,#739));
#603 = ADVANCED_FACE('',(#604),#638,.F.);
#604 = FACE_BOUND('',#605,.F.);
#605 = EDGE_LOOP('',(#606,#616,#624,#632));
#606 = ORIENTED_EDGE('',*,*,#607,.T.);
#607 = EDGE_CURVE('',#608,#610,#612,.T.);
#608 = VERTEX_POINT('',#609);
#609 = CARTESIAN_POINT('',(-2.090231,-1.914769,0.));
#610 = VERTEX_POINT('',#611);
#611 = CARTESIAN_POINT('',(-2.090231,-1.914769,-4.E-02));
#612 = LINE('',#613,#614);
#613 = CARTESIAN_POINT('',(-2.090231,-1.914769,0.));
#614 = VECTOR('',#615,1.);
#615 = DIRECTION('',(0.,0.,-1.));
#616 = ORIENTED_EDGE('',*,*,#617,.T.);
#617 = EDGE_CURVE('',#610,#618,#620,.T.);
#618 = VERTEX_POINT('',#619);
#619 = CARTESIAN_POINT('',(-2.090231,2.045231,-4.E-02));
#620 = LINE('',#621,#622);
#621 = CARTESIAN_POINT('',(-2.090231,-1.914769,-4.E-02));
#622 = VECTOR('',#623,1.);
#623 = DIRECTION('',(0.,1.,0.));
#624 = ORIENTED_EDGE('',*,*,#625,.F.);
#625 = EDGE_CURVE('',#626,#618,#628,.T.);
#626 = VERTEX_POINT('',#627);
#627 = CARTESIAN_POINT('',(-2.090231,2.045231,0.));
#628 = LINE('',#629,#630);
#629 = CARTESIAN_POINT('',(-2.090231,2.045231,0.));
#630 = VECTOR('',#631,1.);
#631 = DIRECTION('',(0.,0.,-1.));
#632 = ORIENTED_EDGE('',*,*,#633,.F.);
#633 = EDGE_CURVE('',#608,#626,#634,.T.);
#634 = LINE('',#635,#636);
#635 = CARTESIAN_POINT('',(-2.090231,-1.914769,0.));
#636 = VECTOR('',#637,1.);
#637 = DIRECTION('',(0.,1.,0.));
#638 = PLANE('',#639);
#639 = AXIS2_PLACEMENT_3D('',#640,#641,#642);
#640 = CARTESIAN_POINT('',(-2.090231,-1.914769,0.));
#641 = DIRECTION('',(1.,-0.,0.));
#642 = DIRECTION('',(0.,1.,0.));
#643 = ADVANCED_FACE('',(#644),#669,.F.);
#644 = FACE_BOUND('',#645,.F.);
#645 = EDGE_LOOP('',(#646,#647,#655,#663));
#646 = ORIENTED_EDGE('',*,*,#625,.T.);
#647 = ORIENTED_EDGE('',*,*,#648,.T.);
#648 = EDGE_CURVE('',#618,#649,#651,.T.);
#649 = VERTEX_POINT('',#650);
#650 = CARTESIAN_POINT('',(1.869769,2.045231,-4.E-02));
#651 = LINE('',#652,#653);
#652 = CARTESIAN_POINT('',(-2.090231,2.045231,-4.E-02));
#653 = VECTOR('',#654,1.);
#654 = DIRECTION('',(1.,0.,0.));
#655 = ORIENTED_EDGE('',*,*,#656,.F.);
#656 = EDGE_CURVE('',#657,#649,#659,.T.);
#657 = VERTEX_POINT('',#658);
#658 = CARTESIAN_POINT('',(1.869769,2.045231,0.));
#659 = LINE('',#660,#661);
#660 = CARTESIAN_POINT('',(1.869769,2.045231,0.));
#661 = VECTOR('',#662,1.);
#662 = DIRECTION('',(0.,0.,-1.));
#663 = ORIENTED_EDGE('',*,*,#664,.F.);
#664 = EDGE_CURVE('',#626,#657,#665,.T.);
#665 = LINE('',#666,#667);
#666 = CARTESIAN_POINT('',(-2.090231,2.045231,0.));
#667 = VECTOR('',#668,1.);
#668 = DIRECTION('',(1.,0.,0.));
#669 = PLANE('',#670);
#670 = AXIS2_PLACEMENT_3D('',#671,#672,#673);
#671 = CARTESIAN_POINT('',(-2.090231,2.045231,0.));
#672 = DIRECTION('',(0.,-1.,0.));
#673 = DIRECTION('',(1.,0.,0.));
#674 = ADVANCED_FACE('',(#675),#700,.F.);
#675 = FACE_BOUND('',#676,.F.);
#676 = EDGE_LOOP('',(#677,#678,#686,#694));
#677 = ORIENTED_EDGE('',*,*,#656,.T.);
#678 = ORIENTED_EDGE('',*,*,#679,.T.);
#679 = EDGE_CURVE('',#649,#680,#682,.T.);
#680 = VERTEX_POINT('',#681);
#681 = CARTESIAN_POINT('',(1.869769,-1.914769,-4.E-02));
#682 = LINE('',#683,#684);
#683 = CARTESIAN_POINT('',(1.869769,2.045231,-4.E-02));
#684 = VECTOR('',#685,1.);
#685 = DIRECTION('',(0.,-1.,0.));
#686 = ORIENTED_EDGE('',*,*,#687,.F.);
#687 = EDGE_CURVE('',#688,#680,#690,.T.);
#688 = VERTEX_POINT('',#689);
#689 = CARTESIAN_POINT('',(1.869769,-1.914769,0.));
#690 = LINE('',#691,#692);
#691 = CARTESIAN_POINT('',(1.869769,-1.914769,0.));
#692 = VECTOR('',#693,1.);
#693 = DIRECTION('',(0.,0.,-1.));
#694 = ORIENTED_EDGE('',*,*,#695,.F.);
#695 = EDGE_CURVE('',#657,#688,#696,.T.);
#696 = LINE('',#697,#698);
#697 = CARTESIAN_POINT('',(1.869769,2.045231,0.));
#698 = VECTOR('',#699,1.);
#699 = DIRECTION('',(0.,-1.,0.));
#700 = PLANE('',#701);
#701 = AXIS2_PLACEMENT_3D('',#702,#703,#704);
#702 = CARTESIAN_POINT('',(1.869769,2.045231,0.));
#703 = DIRECTION('',(-1.,-0.,-0.));
#704 = DIRECTION('',(0.,-1.,0.));
#705 = ADVANCED_FACE('',(#706),#722,.F.);
#706 = FACE_BOUND('',#707,.F.);
#707 = EDGE_LOOP('',(#708,#709,#715,#716));
#708 = ORIENTED_EDGE('',*,*,#687,.T.);
#709 = ORIENTED_EDGE('',*,*,#710,.T.);
#710 = EDGE_CURVE('',#680,#610,#711,.T.);
#711 = LINE('',#712,#713);
#712 = CARTESIAN_POINT('',(1.869769,-1.914769,-4.E-02));
#713 = VECTOR('',#714,1.);
#714 = DIRECTION('',(-1.,0.,0.));
#715 = ORIENTED_EDGE('',*,*,#607,.F.);
#716 = ORIENTED_EDGE('',*,*,#717,.F.);
#717 = EDGE_CURVE('',#688,#608,#718,.T.);
#718 = LINE('',#719,#720);
#719 = CARTESIAN_POINT('',(1.869769,-1.914769,0.));
#720 = VECTOR('',#721,1.);
#721 = DIRECTION('',(-1.,0.,0.));
#722 = PLANE('',#723);
#723 = AXIS2_PLACEMENT_3D('',#724,#725,#726);
#724 = CARTESIAN_POINT('',(1.869769,-1.914769,0.));
#725 = DIRECTION('',(0.,1.,0.));
#726 = DIRECTION('',(-1.,0.,0.));
#727 = ADVANCED_FACE('',(#728),#734,.F.);
#728 = FACE_BOUND('',#729,.F.);
#729 = EDGE_LOOP('',(#730,#731,#732,#733));
#730 = ORIENTED_EDGE('',*,*,#633,.T.);
#731 = ORIENTED_EDGE('',*,*,#664,.T.);
#732 = ORIENTED_EDGE('',*,*,#695,.T.);
#733 = ORIENTED_EDGE('',*,*,#717,.T.);
#734 = PLANE('',#735);
#735 = AXIS2_PLACEMENT_3D('',#736,#737,#738);
#736 = CARTESIAN_POINT('',(0.,0.,0.));
#737 = DIRECTION('',(-0.,-0.,-1.));
#738 = DIRECTION('',(-1.,0.,0.));
#739 = ADVANCED_FACE('',(#740),#746,.T.);
#740 = FACE_BOUND('',#741,.T.);
#741 = EDGE_LOOP('',(#742,#743,#744,#745));
#742 = ORIENTED_EDGE('',*,*,#617,.T.);
#743 = ORIENTED_EDGE('',*,*,#648,.T.);
#744 = ORIENTED_EDGE('',*,*,#679,.T.);
#745 = ORIENTED_EDGE('',*,*,#710,.T.);
#746 = PLANE('',#747);
#747 = AXIS2_PLACEMENT_3D('',#748,#749,#750);
#748 = CARTESIAN_POINT('',(0.,0.,-4.E-02));
#749 = DIRECTION('',(-0.,-0.,-1.));
#750 = DIRECTION('',(-1.,0.,0.));
#751 = ( GEOMETRIC_REPRESENTATION_CONTEXT(3) 
GLOBAL_UNCERTAINTY_ASSIGNED_CONTEXT((#755)) GLOBAL_UNIT_ASSIGNED_CONTEXT
((#752,#753,#754)) REPRESENTATION_CONTEXT('Context #1',
  '3D Context with UNIT and UNCERTAINTY') );
#752 = ( LENGTH_UNIT() NAMED_UNIT(*) SI_UNIT(.MILLI.,.METRE.) );
#753 = ( NAMED_UNIT(*) PLANE_ANGLE_UNIT() SI_UNIT($,.RADIAN.) );
#754 = ( NAMED_UNIT(*) SI_UNIT($,.STERADIAN.) SOLID_ANGLE_UNIT() );
#755 = UNCERTAINTY_MEASURE_WITH_UNIT(LENGTH_MEASURE(1.E-07),#752,
  'distance_accuracy_value','confusion accuracy');
#756 = CONTEXT_DEPENDENT_SHAPE_REPRESENTATION(#757,#759);
#757 = ( REPRESENTATION_RELATIONSHIP('','',#44,#10) 
REPRESENTATION_RELATIONSHIP_WITH_TRANSFORMATION(#758) 
SHAPE_REPRESENTATION_RELATIONSHIP() );
#758 = ITEM_DEFINED_TRANSFORMATION('','',#11,#15);
#759 = PRODUCT_DEFINITION_SHAPE('Placement','Placement of an item',#760
  );
#760 = NEXT_ASSEMBLY_USAGE_OCCURRENCE('1','=>[0:1:1:2]','',#5,#39,$);
#761 = PRODUCT_RELATED_PRODUCT_CATEGORY('part',$,(#41));
#762 = SHAPE_DEFINITION_REPRESENTATION(#763,#769);
#763 = PRODUCT_DEFINITION_SHAPE('','',#764);
#764 = PRODUCT_DEFINITION('design','',#765,#768);
#765 = PRODUCT_DEFINITION_FORMATION('','',#766);
#766 = PRODUCT('spirulo-hw_soldermask','spirulo-hw_soldermask','',(#767)
  );
#767 = PRODUCT_CONTEXT('',#2,'mechanical');
#768 = PRODUCT_DEFINITION_CONTEXT('part definition',#2,'design');
#769 = MANIFOLD_SURFACE_SHAPE_REPRESENTATION('',(#11,#770),#878);
#770 = SHELL_BASED_SURFACE_MODEL('',(#771));
#771 = OPEN_SHELL('',(#772));
#772 = ADVANCED_FACE('',(#773),#873,.T.);
#773 = FACE_BOUND('',#774,.F.);
#774 = EDGE_LOOP('',(#775,#785,#793,#801,#809,#818,#826,#834,#842,#850,
    #858,#867));
#775 = ORIENTED_EDGE('',*,*,#776,.T.);
#776 = EDGE_CURVE('',#777,#779,#781,.T.);
#777 = VERTEX_POINT('',#778);
#778 = CARTESIAN_POINT('',(4.597699,10.041659,0.76));
#779 = VERTEX_POINT('',#780);
#780 = CARTESIAN_POINT('',(4.164769,9.095231,0.76));
#781 = LINE('',#782,#783);
#782 = CARTESIAN_POINT('',(4.597699,10.041659,0.76));
#783 = VECTOR('',#784,1.);
#784 = DIRECTION('',(-0.415980055469,-0.909373736949,0.));
#785 = ORIENTED_EDGE('',*,*,#786,.T.);
#786 = EDGE_CURVE('',#779,#787,#789,.T.);
#787 = VERTEX_POINT('',#788);
#788 = CARTESIAN_POINT('',(6.354769,7.795231,0.76));
#789 = LINE('',#790,#791);
#790 = CARTESIAN_POINT('',(4.164769,9.095231,0.76));
#791 = VECTOR('',#792,1.);
#792 = DIRECTION('',(0.859908604718,-0.510448030198,0.));
#793 = ORIENTED_EDGE('',*,*,#794,.T.);
#794 = EDGE_CURVE('',#787,#795,#797,.T.);
#795 = VERTEX_POINT('',#796);
#796 = CARTESIAN_POINT('',(6.968752,8.557832,0.76));
#797 = LINE('',#798,#799);
#798 = CARTESIAN_POINT('',(6.354769,7.795231,0.76));
#799 = VECTOR('',#800,1.);
#800 = DIRECTION('',(0.627122331556,0.778920779838,0.));
#801 = ORIENTED_EDGE('',*,*,#802,.T.);
#802 = EDGE_CURVE('',#795,#803,#805,.T.);
#803 = VERTEX_POINT('',#804);
#804 = CARTESIAN_POINT('',(7.224342,8.346792,0.76));
#805 = LINE('',#806,#807);
#806 = CARTESIAN_POINT('',(6.968752,8.557832,0.76));
#807 = VECTOR('',#808,1.);
#808 = DIRECTION('',(0.771109223854,-0.63670288588,0.));
#809 = ORIENTED_EDGE('',*,*,#810,.T.);
#810 = EDGE_CURVE('',#803,#811,#813,.T.);
#811 = VERTEX_POINT('',#812);
#812 = CARTESIAN_POINT('',(-4.23211,-10.198868,0.76));
#813 = CIRCLE('',#814,11.039510929251);
#814 = AXIS2_PLACEMENT_3D('',#815,#816,#817);
#815 = CARTESIAN_POINT('',(4.769138110928E-03,-4.768886979337E-03,0.76)
  );
#816 = DIRECTION('',(0.,0.,-1.));
#817 = DIRECTION('',(0.653975788253,0.75651547795,0.));
#818 = ORIENTED_EDGE('',*,*,#819,.T.);
#819 = EDGE_CURVE('',#811,#820,#822,.T.);
#820 = VERTEX_POINT('',#821);
#821 = CARTESIAN_POINT('',(-4.53523,-10.064769,0.76));
#822 = LINE('',#823,#824);
#823 = CARTESIAN_POINT('',(-4.23211,-10.198868,0.76));
#824 = VECTOR('',#825,1.);
#825 = DIRECTION('',(-0.914505544397,0.404573366977,0.));
#826 = ORIENTED_EDGE('',*,*,#827,.T.);
#827 = EDGE_CURVE('',#820,#828,#830,.T.);
#828 = VERTEX_POINT('',#829);
#829 = CARTESIAN_POINT('',(-4.085231,-9.084769,0.76));
#830 = LINE('',#831,#832);
#831 = CARTESIAN_POINT('',(-4.53523,-10.064769,0.76));
#832 = VECTOR('',#833,1.);
#833 = DIRECTION('',(0.417292454135,0.908772252944,0.));
#834 = ORIENTED_EDGE('',*,*,#835,.T.);
#835 = EDGE_CURVE('',#828,#836,#838,.T.);
#836 = VERTEX_POINT('',#837);
#837 = CARTESIAN_POINT('',(-6.285231,-7.724769,0.76));
#838 = LINE('',#839,#840);
#839 = CARTESIAN_POINT('',(-4.085231,-9.084769,0.76));
#840 = VECTOR('',#841,1.);
#841 = DIRECTION('',(-0.850594569546,0.525822097538,0.));
#842 = ORIENTED_EDGE('',*,*,#843,.T.);
#843 = EDGE_CURVE('',#836,#844,#846,.T.);
#844 = VERTEX_POINT('',#845);
#845 = CARTESIAN_POINT('',(-6.965231,-8.574769,0.76));
#846 = LINE('',#847,#848);
#847 = CARTESIAN_POINT('',(-6.285231,-7.724769,0.76));
#848 = VECTOR('',#849,1.);
#849 = DIRECTION('',(-0.624695047554,-0.780868809443,0.));
#850 = ORIENTED_EDGE('',*,*,#851,.T.);
#851 = EDGE_CURVE('',#844,#852,#854,.T.);
#852 = VERTEX_POINT('',#853);
#853 = CARTESIAN_POINT('',(-7.221464,-8.363177,0.76));
#854 = LINE('',#855,#856);
#855 = CARTESIAN_POINT('',(-6.965231,-8.574769,0.76));
#856 = VECTOR('',#857,1.);
#857 = DIRECTION('',(-0.771078083125,0.636740598458,0.));
#858 = ORIENTED_EDGE('',*,*,#859,.T.);
#859 = EDGE_CURVE('',#852,#860,#862,.T.);
#860 = VERTEX_POINT('',#861);
#861 = CARTESIAN_POINT('',(4.294458,10.177568,0.76));
#862 = CIRCLE('',#863,11.049046193039);
#863 = AXIS2_PLACEMENT_3D('',#864,#865,#866);
#864 = CARTESIAN_POINT('',(4.768568371201E-03,-4.768979106983E-03,0.76)
  );
#865 = DIRECTION('',(0.,0.,-1.));
#866 = DIRECTION('',(-0.654014151278,-0.756482313031,-0.));
#867 = ORIENTED_EDGE('',*,*,#868,.T.);
#868 = EDGE_CURVE('',#860,#777,#869,.T.);
#869 = LINE('',#870,#871);
#870 = CARTESIAN_POINT('',(4.294458,10.177568,0.76));
#871 = VECTOR('',#872,1.);
#872 = DIRECTION('',(0.91253922426,-0.408989198129,0.));
#873 = PLANE('',#874);
#874 = AXIS2_PLACEMENT_3D('',#875,#876,#877);
#875 = CARTESIAN_POINT('',(0.,0.,0.76));
#876 = DIRECTION('',(0.,0.,1.));
#877 = DIRECTION('',(1.,0.,-0.));
#878 = ( GEOMETRIC_REPRESENTATION_CONTEXT(3) 
GLOBAL_UNCERTAINTY_ASSIGNED_CONTEXT((#882)) GLOBAL_UNIT_ASSIGNED_CONTEXT
((#879,#880,#881)) REPRESENTATION_CONTEXT('Context #1',
  '3D Context with UNIT and UNCERTAINTY') );
#879 = ( LENGTH_UNIT() NAMED_UNIT(*) SI_UNIT(.MILLI.,.METRE.) );
#880 = ( NAMED_UNIT(*) PLANE_ANGLE_UNIT() SI_UNIT($,.RADIAN.) );
#881 = ( NAMED_UNIT(*) SI_UNIT($,.STERADIAN.) SOLID_ANGLE_UNIT() );
#882 = UNCERTAINTY_MEASURE_WITH_UNIT(LENGTH_MEASURE(1.E-07),#879,
  'distance_accuracy_value','confusion accuracy');
#883 = CONTEXT_DEPENDENT_SHAPE_REPRESENTATION(#884,#886);
#884 = ( REPRESENTATION_RELATIONSHIP('','',#769,#10) 
REPRESENTATION_RELATIONSHIP_WITH_TRANSFORMATION(#885) 
SHAPE_REPRESENTATION_RELATIONSHIP() );
#885 = ITEM_DEFINED_TRANSFORMATION('','',#11,#19);
#886 = PRODUCT_DEFINITION_SHAPE('Placement','Placement of an item',#887
  );
#887 = NEXT_ASSEMBLY_USAGE_OCCURRENCE('2','=>[0:1:1:3]','',#5,#764,$);
#888 = PRODUCT_RELATED_PRODUCT_CATEGORY('part',$,(#766));
#889 = SHAPE_DEFINITION_REPRESENTATION(#890,#896);
#890 = PRODUCT_DEFINITION_SHAPE('','',#891);
#891 = PRODUCT_DEFINITION('design','',#892,#895);
#892 = PRODUCT_DEFINITION_FORMATION('','',#893);
#893 = PRODUCT('spirulo-hw_soldermask','spirulo-hw_soldermask','',(#894)
  );
#894 = PRODUCT_CONTEXT('',#2,'mechanical');
#895 = PRODUCT_DEFINITION_CONTEXT('part definition',#2,'design');
#896 = MANIFOLD_SURFACE_SHAPE_REPRESENTATION('',(#11,#897),#1177);
#897 = SHELL_BASED_SURFACE_MODEL('',(#898));
#898 = OPEN_SHELL('',(#899));
#899 = ADVANCED_FACE('',(#900,#1000,#1070,#1104,#1138),#1172,.T.);
#900 = FACE_BOUND('',#901,.T.);
#901 = EDGE_LOOP('',(#902,#912,#920,#928,#936,#945,#953,#961,#969,#977,
    #985,#994));
#902 = ORIENTED_EDGE('',*,*,#903,.T.);
#903 = EDGE_CURVE('',#904,#906,#908,.T.);
#904 = VERTEX_POINT('',#905);
#905 = CARTESIAN_POINT('',(4.597699,10.041659,-5.E-02));
#906 = VERTEX_POINT('',#907);
#907 = CARTESIAN_POINT('',(4.164769,9.095231,-5.E-02));
#908 = LINE('',#909,#910);
#909 = CARTESIAN_POINT('',(4.597699,10.041659,-5.E-02));
#910 = VECTOR('',#911,1.);
#911 = DIRECTION('',(-0.415980055469,-0.909373736949,0.));
#912 = ORIENTED_EDGE('',*,*,#913,.T.);
#913 = EDGE_CURVE('',#906,#914,#916,.T.);
#914 = VERTEX_POINT('',#915);
#915 = CARTESIAN_POINT('',(6.354769,7.795231,-5.E-02));
#916 = LINE('',#917,#918);
#917 = CARTESIAN_POINT('',(4.164769,9.095231,-5.E-02));
#918 = VECTOR('',#919,1.);
#919 = DIRECTION('',(0.859908604718,-0.510448030198,0.));
#920 = ORIENTED_EDGE('',*,*,#921,.T.);
#921 = EDGE_CURVE('',#914,#922,#924,.T.);
#922 = VERTEX_POINT('',#923);
#923 = CARTESIAN_POINT('',(6.968752,8.557832,-5.E-02));
#924 = LINE('',#925,#926);
#925 = CARTESIAN_POINT('',(6.354769,7.795231,-5.E-02));
#926 = VECTOR('',#927,1.);
#927 = DIRECTION('',(0.627122331556,0.778920779838,0.));
#928 = ORIENTED_EDGE('',*,*,#929,.T.);
#929 = EDGE_CURVE('',#922,#930,#932,.T.);
#930 = VERTEX_POINT('',#931);
#931 = CARTESIAN_POINT('',(7.224342,8.346792,-5.E-02));
#932 = LINE('',#933,#934);
#933 = CARTESIAN_POINT('',(6.968752,8.557832,-5.E-02));
#934 = VECTOR('',#935,1.);
#935 = DIRECTION('',(0.771109223854,-0.63670288588,0.));
#936 = ORIENTED_EDGE('',*,*,#937,.T.);
#937 = EDGE_CURVE('',#930,#938,#940,.T.);
#938 = VERTEX_POINT('',#939);
#939 = CARTESIAN_POINT('',(-4.23211,-10.198868,-5.E-02));
#940 = CIRCLE('',#941,11.039510929251);
#941 = AXIS2_PLACEMENT_3D('',#942,#943,#944);
#942 = CARTESIAN_POINT('',(4.769138110928E-03,-4.768886979337E-03,
    -5.E-02));
#943 = DIRECTION('',(0.,0.,-1.));
#944 = DIRECTION('',(0.653975788253,0.75651547795,0.));
#945 = ORIENTED_EDGE('',*,*,#946,.T.);
#946 = EDGE_CURVE('',#938,#947,#949,.T.);
#947 = VERTEX_POINT('',#948);
#948 = CARTESIAN_POINT('',(-4.53523,-10.064769,-5.E-02));
#949 = LINE('',#950,#951);
#950 = CARTESIAN_POINT('',(-4.23211,-10.198868,-5.E-02));
#951 = VECTOR('',#952,1.);
#952 = DIRECTION('',(-0.914505544397,0.404573366977,0.));
#953 = ORIENTED_EDGE('',*,*,#954,.T.);
#954 = EDGE_CURVE('',#947,#955,#957,.T.);
#955 = VERTEX_POINT('',#956);
#956 = CARTESIAN_POINT('',(-4.085231,-9.084769,-5.E-02));
#957 = LINE('',#958,#959);
#958 = CARTESIAN_POINT('',(-4.53523,-10.064769,-5.E-02));
#959 = VECTOR('',#960,1.);
#960 = DIRECTION('',(0.417292454135,0.908772252944,0.));
#961 = ORIENTED_EDGE('',*,*,#962,.T.);
#962 = EDGE_CURVE('',#955,#963,#965,.T.);
#963 = VERTEX_POINT('',#964);
#964 = CARTESIAN_POINT('',(-6.285231,-7.724769,-5.E-02));
#965 = LINE('',#966,#967);
#966 = CARTESIAN_POINT('',(-4.085231,-9.084769,-5.E-02));
#967 = VECTOR('',#968,1.);
#968 = DIRECTION('',(-0.850594569546,0.525822097538,0.));
#969 = ORIENTED_EDGE('',*,*,#970,.T.);
#970 = EDGE_CURVE('',#963,#971,#973,.T.);
#971 = VERTEX_POINT('',#972);
#972 = CARTESIAN_POINT('',(-6.965231,-8.574769,-5.E-02));
#973 = LINE('',#974,#975);
#974 = CARTESIAN_POINT('',(-6.285231,-7.724769,-5.E-02));
#975 = VECTOR('',#976,1.);
#976 = DIRECTION('',(-0.624695047554,-0.780868809443,0.));
#977 = ORIENTED_EDGE('',*,*,#978,.T.);
#978 = EDGE_CURVE('',#971,#979,#981,.T.);
#979 = VERTEX_POINT('',#980);
#980 = CARTESIAN_POINT('',(-7.221464,-8.363177,-5.E-02));
#981 = LINE('',#982,#983);
#982 = CARTESIAN_POINT('',(-6.965231,-8.574769,-5.E-02));
#983 = VECTOR('',#984,1.);
#984 = DIRECTION('',(-0.771078083125,0.636740598458,0.));
#985 = ORIENTED_EDGE('',*,*,#986,.T.);
#986 = EDGE_CURVE('',#979,#987,#989,.T.);
#987 = VERTEX_POINT('',#988);
#988 = CARTESIAN_POINT('',(4.294458,10.177568,-5.E-02));
#989 = CIRCLE('',#990,11.049046193039);
#990 = AXIS2_PLACEMENT_3D('',#991,#992,#993);
#991 = CARTESIAN_POINT('',(4.768568371201E-03,-4.768979106983E-03,
    -5.E-02));
#992 = DIRECTION('',(0.,0.,-1.));
#993 = DIRECTION('',(-0.654014151278,-0.756482313031,-0.));
#994 = ORIENTED_EDGE('',*,*,#995,.T.);
#995 = EDGE_CURVE('',#987,#904,#996,.T.);
#996 = LINE('',#997,#998);
#997 = CARTESIAN_POINT('',(4.294458,10.177568,-5.E-02));
#998 = VECTOR('',#999,1.);
#999 = DIRECTION('',(0.91253922426,-0.408989198129,0.));
#1000 = FACE_BOUND('',#1001,.T.);
#1001 = EDGE_LOOP('',(#1002,#1013,#1021,#1030,#1038,#1047,#1055,#1064));
#1002 = ORIENTED_EDGE('',*,*,#1003,.T.);
#1003 = EDGE_CURVE('',#1004,#1006,#1008,.T.);
#1004 = VERTEX_POINT('',#1005);
#1005 = CARTESIAN_POINT('',(1.971769,2.045231,-5.E-02));
#1006 = VERTEX_POINT('',#1007);
#1007 = CARTESIAN_POINT('',(1.869769,2.147231,-5.E-02));
#1008 = CIRCLE('',#1009,0.101999630178);
#1009 = AXIS2_PLACEMENT_3D('',#1010,#1011,#1012);
#1010 = CARTESIAN_POINT('',(1.869769369822,2.045231369822,-5.E-02));
#1011 = DIRECTION('',(0.,0.,1.));
#1012 = DIRECTION('',(0.999999999993,-3.625723788196E-06,0.));
#1013 = ORIENTED_EDGE('',*,*,#1014,.T.);
#1014 = EDGE_CURVE('',#1006,#1015,#1017,.T.);
#1015 = VERTEX_POINT('',#1016);
#1016 = CARTESIAN_POINT('',(-2.090231,2.147231,-5.E-02));
#1017 = LINE('',#1018,#1019);
#1018 = CARTESIAN_POINT('',(1.869769,2.147231,-5.E-02));
#1019 = VECTOR('',#1020,1.);
#1020 = DIRECTION('',(-1.,0.,0.));
#1021 = ORIENTED_EDGE('',*,*,#1022,.T.);
#1022 = EDGE_CURVE('',#1015,#1023,#1025,.T.);
#1023 = VERTEX_POINT('',#1024);
#1024 = CARTESIAN_POINT('',(-2.192231,2.045231,-5.E-02));
#1025 = CIRCLE('',#1026,0.101999630178);
#1026 = AXIS2_PLACEMENT_3D('',#1027,#1028,#1029);
#1027 = CARTESIAN_POINT('',(-2.090231369822,2.045231369822,-5.E-02));
#1028 = DIRECTION('',(0.,0.,1.));
#1029 = DIRECTION('',(3.625723779488E-06,0.999999999993,-0.));
#1030 = ORIENTED_EDGE('',*,*,#1031,.T.);
#1031 = EDGE_CURVE('',#1023,#1032,#1034,.T.);
#1032 = VERTEX_POINT('',#1033);
#1033 = CARTESIAN_POINT('',(-2.192231,-1.914769,-5.E-02));
#1034 = LINE('',#1035,#1036);
#1035 = CARTESIAN_POINT('',(-2.192231,2.045231,-5.E-02));
#1036 = VECTOR('',#1037,1.);
#1037 = DIRECTION('',(0.,-1.,0.));
#1038 = ORIENTED_EDGE('',*,*,#1039,.T.);
#1039 = EDGE_CURVE('',#1032,#1040,#1042,.T.);
#1040 = VERTEX_POINT('',#1041);
#1041 = CARTESIAN_POINT('',(-2.090231,-2.016769,-5.E-02));
#1042 = CIRCLE('',#1043,0.101999630178);
#1043 = AXIS2_PLACEMENT_3D('',#1044,#1045,#1046);
#1044 = CARTESIAN_POINT('',(-2.090231369822,-1.914769369822,-5.E-02));
#1045 = DIRECTION('',(0.,0.,1.));
#1046 = DIRECTION('',(-0.999999999993,3.625723783842E-06,0.));
#1047 = ORIENTED_EDGE('',*,*,#1048,.T.);
#1048 = EDGE_CURVE('',#1040,#1049,#1051,.T.);
#1049 = VERTEX_POINT('',#1050);
#1050 = CARTESIAN_POINT('',(1.869769,-2.016769,-5.E-02));
#1051 = LINE('',#1052,#1053);
#1052 = CARTESIAN_POINT('',(-2.090231,-2.016769,-5.E-02));
#1053 = VECTOR('',#1054,1.);
#1054 = DIRECTION('',(1.,0.,0.));
#1055 = ORIENTED_EDGE('',*,*,#1056,.T.);
#1056 = EDGE_CURVE('',#1049,#1057,#1059,.T.);
#1057 = VERTEX_POINT('',#1058);
#1058 = CARTESIAN_POINT('',(1.971769,-1.914769,-5.E-02));
#1059 = CIRCLE('',#1060,0.101999630178);
#1060 = AXIS2_PLACEMENT_3D('',#1061,#1062,#1063);
#1061 = CARTESIAN_POINT('',(1.869769369822,-1.914769369822,-5.E-02));
#1062 = DIRECTION('',(0.,0.,1.));
#1063 = DIRECTION('',(-3.625723786019E-06,-0.999999999993,0.));
#1064 = ORIENTED_EDGE('',*,*,#1065,.T.);
#1065 = EDGE_CURVE('',#1057,#1004,#1066,.T.);
#1066 = LINE('',#1067,#1068);
#1067 = CARTESIAN_POINT('',(1.971769,-1.914769,-5.E-02));
#1068 = VECTOR('',#1069,1.);
#1069 = DIRECTION('',(0.,1.,0.));
#1070 = FACE_BOUND('',#1071,.T.);
#1071 = EDGE_LOOP('',(#1072,#1082,#1090,#1098));
#1072 = ORIENTED_EDGE('',*,*,#1073,.T.);
#1073 = EDGE_CURVE('',#1074,#1076,#1078,.T.);
#1074 = VERTEX_POINT('',#1075);
#1075 = CARTESIAN_POINT('',(-1.625231,6.635231,-5.E-02));
#1076 = VERTEX_POINT('',#1077);
#1077 = CARTESIAN_POINT('',(-1.625231,10.635231,-5.E-02));
#1078 = LINE('',#1079,#1080);
#1079 = CARTESIAN_POINT('',(-1.625231,6.635231,-5.E-02));
#1080 = VECTOR('',#1081,1.);
#1081 = DIRECTION('',(0.,1.,0.));
#1082 = ORIENTED_EDGE('',*,*,#1083,.T.);
#1083 = EDGE_CURVE('',#1076,#1084,#1086,.T.);
#1084 = VERTEX_POINT('',#1085);
#1085 = CARTESIAN_POINT('',(-2.625231,10.635231,-5.E-02));
#1086 = LINE('',#1087,#1088);
#1087 = CARTESIAN_POINT('',(-1.625231,10.635231,-5.E-02));
#1088 = VECTOR('',#1089,1.);
#1089 = DIRECTION('',(-1.,0.,0.));
#1090 = ORIENTED_EDGE('',*,*,#1091,.T.);
#1091 = EDGE_CURVE('',#1084,#1092,#1094,.T.);
#1092 = VERTEX_POINT('',#1093);
#1093 = CARTESIAN_POINT('',(-2.625231,6.635231,-5.E-02));
#1094 = LINE('',#1095,#1096);
#1095 = CARTESIAN_POINT('',(-2.625231,10.635231,-5.E-02));
#1096 = VECTOR('',#1097,1.);
#1097 = DIRECTION('',(0.,-1.,0.));
#1098 = ORIENTED_EDGE('',*,*,#1099,.T.);
#1099 = EDGE_CURVE('',#1092,#1074,#1100,.T.);
#1100 = LINE('',#1101,#1102);
#1101 = CARTESIAN_POINT('',(-2.625231,6.635231,-5.E-02));
#1102 = VECTOR('',#1103,1.);
#1103 = DIRECTION('',(1.,0.,0.));
#1104 = FACE_BOUND('',#1105,.T.);
#1105 = EDGE_LOOP('',(#1106,#1116,#1124,#1132));
#1106 = ORIENTED_EDGE('',*,*,#1107,.T.);
#1107 = EDGE_CURVE('',#1108,#1110,#1112,.T.);
#1108 = VERTEX_POINT('',#1109);
#1109 = CARTESIAN_POINT('',(0.374769,6.635231,-5.E-02));
#1110 = VERTEX_POINT('',#1111);
#1111 = CARTESIAN_POINT('',(0.374769,10.635231,-5.E-02));
#1112 = LINE('',#1113,#1114);
#1113 = CARTESIAN_POINT('',(0.374769,6.635231,-5.E-02));
#1114 = VECTOR('',#1115,1.);
#1115 = DIRECTION('',(0.,1.,0.));
#1116 = ORIENTED_EDGE('',*,*,#1117,.T.);
#1117 = EDGE_CURVE('',#1110,#1118,#1120,.T.);
#1118 = VERTEX_POINT('',#1119);
#1119 = CARTESIAN_POINT('',(-0.625231,10.635231,-5.E-02));
#1120 = LINE('',#1121,#1122);
#1121 = CARTESIAN_POINT('',(0.374769,10.635231,-5.E-02));
#1122 = VECTOR('',#1123,1.);
#1123 = DIRECTION('',(-1.,0.,0.));
#1124 = ORIENTED_EDGE('',*,*,#1125,.T.);
#1125 = EDGE_CURVE('',#1118,#1126,#1128,.T.);
#1126 = VERTEX_POINT('',#1127);
#1127 = CARTESIAN_POINT('',(-0.625231,6.635231,-5.E-02));
#1128 = LINE('',#1129,#1130);
#1129 = CARTESIAN_POINT('',(-0.625231,10.635231,-5.E-02));
#1130 = VECTOR('',#1131,1.);
#1131 = DIRECTION('',(0.,-1.,0.));
#1132 = ORIENTED_EDGE('',*,*,#1133,.T.);
#1133 = EDGE_CURVE('',#1126,#1108,#1134,.T.);
#1134 = LINE('',#1135,#1136);
#1135 = CARTESIAN_POINT('',(-0.625231,6.635231,-5.E-02));
#1136 = VECTOR('',#1137,1.);
#1137 = DIRECTION('',(1.,0.,0.));
#1138 = FACE_BOUND('',#1139,.T.);
#1139 = EDGE_LOOP('',(#1140,#1150,#1158,#1166));
#1140 = ORIENTED_EDGE('',*,*,#1141,.T.);
#1141 = EDGE_CURVE('',#1142,#1144,#1146,.T.);
#1142 = VERTEX_POINT('',#1143);
#1143 = CARTESIAN_POINT('',(2.374769,6.635231,-5.E-02));
#1144 = VERTEX_POINT('',#1145);
#1145 = CARTESIAN_POINT('',(2.374769,10.635231,-5.E-02));
#1146 = LINE('',#1147,#1148);
#1147 = CARTESIAN_POINT('',(2.374769,6.635231,-5.E-02));
#1148 = VECTOR('',#1149,1.);
#1149 = DIRECTION('',(0.,1.,0.));
#1150 = ORIENTED_EDGE('',*,*,#1151,.T.);
#1151 = EDGE_CURVE('',#1144,#1152,#1154,.T.);
#1152 = VERTEX_POINT('',#1153);
#1153 = CARTESIAN_POINT('',(1.374769,10.635231,-5.E-02));
#1154 = LINE('',#1155,#1156);
#1155 = CARTESIAN_POINT('',(2.374769,10.635231,-5.E-02));
#1156 = VECTOR('',#1157,1.);
#1157 = DIRECTION('',(-1.,0.,0.));
#1158 = ORIENTED_EDGE('',*,*,#1159,.T.);
#1159 = EDGE_CURVE('',#1152,#1160,#1162,.T.);
#1160 = VERTEX_POINT('',#1161);
#1161 = CARTESIAN_POINT('',(1.374769,6.635231,-5.E-02));
#1162 = LINE('',#1163,#1164);
#1163 = CARTESIAN_POINT('',(1.374769,10.635231,-5.E-02));
#1164 = VECTOR('',#1165,1.);
#1165 = DIRECTION('',(0.,-1.,0.));
#1166 = ORIENTED_EDGE('',*,*,#1167,.T.);
#1167 = EDGE_CURVE('',#1160,#1142,#1168,.T.);
#1168 = LINE('',#1169,#1170);
#1169 = CARTESIAN_POINT('',(1.374769,6.635231,-5.E-02));
#1170 = VECTOR('',#1171,1.);
#1171 = DIRECTION('',(1.,0.,0.));
#1172 = PLANE('',#1173);
#1173 = AXIS2_PLACEMENT_3D('',#1174,#1175,#1176);
#1174 = CARTESIAN_POINT('',(0.,0.,-5.E-02));
#1175 = DIRECTION('',(-0.,-0.,-1.));
#1176 = DIRECTION('',(-1.,0.,0.));
#1177 = ( GEOMETRIC_REPRESENTATION_CONTEXT(3) 
GLOBAL_UNCERTAINTY_ASSIGNED_CONTEXT((#1181)) 
GLOBAL_UNIT_ASSIGNED_CONTEXT((#1178,#1179,#1180)) REPRESENTATION_CONTEXT
('Context #1','3D Context with UNIT and UNCERTAINTY') );
#1178 = ( LENGTH_UNIT() NAMED_UNIT(*) SI_UNIT(.MILLI.,.METRE.) );
#1179 = ( NAMED_UNIT(*) PLANE_ANGLE_UNIT() SI_UNIT($,.RADIAN.) );
#1180 = ( NAMED_UNIT(*) SI_UNIT($,.STERADIAN.) SOLID_ANGLE_UNIT() );
#1181 = UNCERTAINTY_MEASURE_WITH_UNIT(LENGTH_MEASURE(1.E-07),#1178,
  'distance_accuracy_value','confusion accuracy');
#1182 = CONTEXT_DEPENDENT_SHAPE_REPRESENTATION(#1183,#1185);
#1183 = ( REPRESENTATION_RELATIONSHIP('','',#896,#10) 
REPRESENTATION_RELATIONSHIP_WITH_TRANSFORMATION(#1184) 
SHAPE_REPRESENTATION_RELATIONSHIP() );
#1184 = ITEM_DEFINED_TRANSFORMATION('','',#11,#23);
#1185 = PRODUCT_DEFINITION_SHAPE('Placement','Placement of an item',
  #1186);
#1186 = NEXT_ASSEMBLY_USAGE_OCCURRENCE('3','=>[0:1:1:4]','',#5,#891,$);
#1187 = PRODUCT_RELATED_PRODUCT_CATEGORY('part',$,(#893));
#1188 = SHAPE_DEFINITION_REPRESENTATION(#1189,#1195);
#1189 = PRODUCT_DEFINITION_SHAPE('','',#1190);
#1190 = PRODUCT_DEFINITION('design','',#1191,#1194);
#1191 = PRODUCT_DEFINITION_FORMATION('','',#1192);
#1192 = PRODUCT('spirulo-hw_PCB','spirulo-hw_PCB','',(#1193));
#1193 = PRODUCT_CONTEXT('',#2,'mechanical');
#1194 = PRODUCT_DEFINITION_CONTEXT('part definition',#2,'design');
#1195 = ADVANCED_BREP_SHAPE_REPRESENTATION('',(#11,#1196),#1482);
#1196 = MANIFOLD_SOLID_BREP('',#1197);
#1197 = CLOSED_SHELL('',(#1198,#1240,#1271,#1302,#1333,#1366,#1397,#1428
    ,#1450,#1466));
#1198 = ADVANCED_FACE('',(#1199),#1235,.T.);
#1199 = FACE_BOUND('',#1200,.T.);
#1200 = EDGE_LOOP('',(#1201,#1211,#1220,#1228));
#1201 = ORIENTED_EDGE('',*,*,#1202,.T.);
#1202 = EDGE_CURVE('',#1203,#1205,#1207,.T.);
#1203 = VERTEX_POINT('',#1204);
#1204 = CARTESIAN_POINT('',(-6.965231,-8.574769,0.));
#1205 = VERTEX_POINT('',#1206);
#1206 = CARTESIAN_POINT('',(-6.965231,-8.574769,0.71));
#1207 = LINE('',#1208,#1209);
#1208 = CARTESIAN_POINT('',(-6.965231,-8.574769,0.));
#1209 = VECTOR('',#1210,1.);
#1210 = DIRECTION('',(0.,0.,1.));
#1211 = ORIENTED_EDGE('',*,*,#1212,.T.);
#1212 = EDGE_CURVE('',#1205,#1213,#1215,.T.);
#1213 = VERTEX_POINT('',#1214);
#1214 = CARTESIAN_POINT('',(4.597699,10.041659,0.71));
#1215 = CIRCLE('',#1216,11.046526891482);
#1216 = AXIS2_PLACEMENT_3D('',#1217,#1218,#1219);
#1217 = CARTESIAN_POINT('',(4.766717462874E-03,-4.7696894524E-03,0.71));
#1218 = DIRECTION('',(0.,0.,-1.));
#1219 = DIRECTION('',(-0.630967342581,-0.775809391924,-0.));
#1220 = ORIENTED_EDGE('',*,*,#1221,.F.);
#1221 = EDGE_CURVE('',#1222,#1213,#1224,.T.);
#1222 = VERTEX_POINT('',#1223);
#1223 = CARTESIAN_POINT('',(4.597699,10.041659,0.));
#1224 = LINE('',#1225,#1226);
#1225 = CARTESIAN_POINT('',(4.597699,10.041659,0.));
#1226 = VECTOR('',#1227,1.);
#1227 = DIRECTION('',(0.,0.,1.));
#1228 = ORIENTED_EDGE('',*,*,#1229,.F.);
#1229 = EDGE_CURVE('',#1203,#1222,#1230,.T.);
#1230 = CIRCLE('',#1231,11.046526891482);
#1231 = AXIS2_PLACEMENT_3D('',#1232,#1233,#1234);
#1232 = CARTESIAN_POINT('',(4.766717462874E-03,-4.7696894524E-03,0.));
#1233 = DIRECTION('',(0.,0.,-1.));
#1234 = DIRECTION('',(-0.630967342581,-0.775809391924,-0.));
#1235 = CYLINDRICAL_SURFACE('',#1236,11.046526891482);
#1236 = AXIS2_PLACEMENT_3D('',#1237,#1238,#1239);
#1237 = CARTESIAN_POINT('',(4.766717462874E-03,-4.7696894524E-03,0.));
#1238 = DIRECTION('',(0.,0.,-1.));
#1239 = DIRECTION('',(-0.630967342581,-0.775809391924,-0.));
#1240 = ADVANCED_FACE('',(#1241),#1266,.T.);
#1241 = FACE_BOUND('',#1242,.T.);
#1242 = EDGE_LOOP('',(#1243,#1244,#1252,#1260));
#1243 = ORIENTED_EDGE('',*,*,#1221,.T.);
#1244 = ORIENTED_EDGE('',*,*,#1245,.T.);
#1245 = EDGE_CURVE('',#1213,#1246,#1248,.T.);
#1246 = VERTEX_POINT('',#1247);
#1247 = CARTESIAN_POINT('',(4.164769,9.095231,0.71));
#1248 = LINE('',#1249,#1250);
#1249 = CARTESIAN_POINT('',(4.597699,10.041659,0.71));
#1250 = VECTOR('',#1251,1.);
#1251 = DIRECTION('',(-0.415980055469,-0.909373736949,0.));
#1252 = ORIENTED_EDGE('',*,*,#1253,.F.);
#1253 = EDGE_CURVE('',#1254,#1246,#1256,.T.);
#1254 = VERTEX_POINT('',#1255);
#1255 = CARTESIAN_POINT('',(4.164769,9.095231,0.));
#1256 = LINE('',#1257,#1258);
#1257 = CARTESIAN_POINT('',(4.164769,9.095231,0.));
#1258 = VECTOR('',#1259,1.);
#1259 = DIRECTION('',(0.,0.,1.));
#1260 = ORIENTED_EDGE('',*,*,#1261,.F.);
#1261 = EDGE_CURVE('',#1222,#1254,#1262,.T.);
#1262 = LINE('',#1263,#1264);
#1263 = CARTESIAN_POINT('',(4.597699,10.041659,0.));
#1264 = VECTOR('',#1265,1.);
#1265 = DIRECTION('',(-0.415980055469,-0.909373736949,0.));
#1266 = PLANE('',#1267);
#1267 = AXIS2_PLACEMENT_3D('',#1268,#1269,#1270);
#1268 = CARTESIAN_POINT('',(4.597699,10.041659,0.));
#1269 = DIRECTION('',(0.909373736949,-0.415980055469,0.));
#1270 = DIRECTION('',(-0.415980055469,-0.909373736949,0.));
#1271 = ADVANCED_FACE('',(#1272),#1297,.T.);
#1272 = FACE_BOUND('',#1273,.T.);
#1273 = EDGE_LOOP('',(#1274,#1275,#1283,#1291));
#1274 = ORIENTED_EDGE('',*,*,#1253,.T.);
#1275 = ORIENTED_EDGE('',*,*,#1276,.T.);
#1276 = EDGE_CURVE('',#1246,#1277,#1279,.T.);
#1277 = VERTEX_POINT('',#1278);
#1278 = CARTESIAN_POINT('',(6.354769,7.795231,0.71));
#1279 = LINE('',#1280,#1281);
#1280 = CARTESIAN_POINT('',(4.164769,9.095231,0.71));
#1281 = VECTOR('',#1282,1.);
#1282 = DIRECTION('',(0.859908604718,-0.510448030198,0.));
#1283 = ORIENTED_EDGE('',*,*,#1284,.F.);
#1284 = EDGE_CURVE('',#1285,#1277,#1287,.T.);
#1285 = VERTEX_POINT('',#1286);
#1286 = CARTESIAN_POINT('',(6.354769,7.795231,0.));
#1287 = LINE('',#1288,#1289);
#1288 = CARTESIAN_POINT('',(6.354769,7.795231,0.));
#1289 = VECTOR('',#1290,1.);
#1290 = DIRECTION('',(0.,0.,1.));
#1291 = ORIENTED_EDGE('',*,*,#1292,.F.);
#1292 = EDGE_CURVE('',#1254,#1285,#1293,.T.);
#1293 = LINE('',#1294,#1295);
#1294 = CARTESIAN_POINT('',(4.164769,9.095231,0.));
#1295 = VECTOR('',#1296,1.);
#1296 = DIRECTION('',(0.859908604718,-0.510448030198,0.));
#1297 = PLANE('',#1298);
#1298 = AXIS2_PLACEMENT_3D('',#1299,#1300,#1301);
#1299 = CARTESIAN_POINT('',(4.164769,9.095231,0.));
#1300 = DIRECTION('',(0.510448030198,0.859908604718,-0.));
#1301 = DIRECTION('',(0.859908604718,-0.510448030198,0.));
#1302 = ADVANCED_FACE('',(#1303),#1328,.T.);
#1303 = FACE_BOUND('',#1304,.T.);
#1304 = EDGE_LOOP('',(#1305,#1306,#1314,#1322));
#1305 = ORIENTED_EDGE('',*,*,#1284,.T.);
#1306 = ORIENTED_EDGE('',*,*,#1307,.T.);
#1307 = EDGE_CURVE('',#1277,#1308,#1310,.T.);
#1308 = VERTEX_POINT('',#1309);
#1309 = CARTESIAN_POINT('',(6.968752,8.557832,0.71));
#1310 = LINE('',#1311,#1312);
#1311 = CARTESIAN_POINT('',(6.354769,7.795231,0.71));
#1312 = VECTOR('',#1313,1.);
#1313 = DIRECTION('',(0.627122331556,0.778920779838,0.));
#1314 = ORIENTED_EDGE('',*,*,#1315,.F.);
#1315 = EDGE_CURVE('',#1316,#1308,#1318,.T.);
#1316 = VERTEX_POINT('',#1317);
#1317 = CARTESIAN_POINT('',(6.968752,8.557832,0.));
#1318 = LINE('',#1319,#1320);
#1319 = CARTESIAN_POINT('',(6.968752,8.557832,0.));
#1320 = VECTOR('',#1321,1.);
#1321 = DIRECTION('',(0.,0.,1.));
#1322 = ORIENTED_EDGE('',*,*,#1323,.F.);
#1323 = EDGE_CURVE('',#1285,#1316,#1324,.T.);
#1324 = LINE('',#1325,#1326);
#1325 = CARTESIAN_POINT('',(6.354769,7.795231,0.));
#1326 = VECTOR('',#1327,1.);
#1327 = DIRECTION('',(0.627122331556,0.778920779838,0.));
#1328 = PLANE('',#1329);
#1329 = AXIS2_PLACEMENT_3D('',#1330,#1331,#1332);
#1330 = CARTESIAN_POINT('',(6.354769,7.795231,0.));
#1331 = DIRECTION('',(-0.778920779838,0.627122331556,0.));
#1332 = DIRECTION('',(0.627122331556,0.778920779838,0.));
#1333 = ADVANCED_FACE('',(#1334),#1361,.T.);
#1334 = FACE_BOUND('',#1335,.T.);
#1335 = EDGE_LOOP('',(#1336,#1337,#1346,#1354));
#1336 = ORIENTED_EDGE('',*,*,#1315,.T.);
#1337 = ORIENTED_EDGE('',*,*,#1338,.T.);
#1338 = EDGE_CURVE('',#1308,#1339,#1341,.T.);
#1339 = VERTEX_POINT('',#1340);
#1340 = CARTESIAN_POINT('',(-4.53523,-10.064769,0.71));
#1341 = CIRCLE('',#1342,11.036992003908);
#1342 = AXIS2_PLACEMENT_3D('',#1343,#1344,#1345);
#1343 = CARTESIAN_POINT('',(4.769205690643E-03,-4.76901457997E-03,0.71)
  );
#1344 = DIRECTION('',(0.,0.,-1.));
#1345 = DIRECTION('',(0.630967458511,0.775809297637,0.));
#1346 = ORIENTED_EDGE('',*,*,#1347,.F.);
#1347 = EDGE_CURVE('',#1348,#1339,#1350,.T.);
#1348 = VERTEX_POINT('',#1349);
#1349 = CARTESIAN_POINT('',(-4.53523,-10.064769,0.));
#1350 = LINE('',#1351,#1352);
#1351 = CARTESIAN_POINT('',(-4.53523,-10.064769,0.));
#1352 = VECTOR('',#1353,1.);
#1353 = DIRECTION('',(0.,0.,1.));
#1354 = ORIENTED_EDGE('',*,*,#1355,.F.);
#1355 = EDGE_CURVE('',#1316,#1348,#1356,.T.);
#1356 = CIRCLE('',#1357,11.036992003908);
#1357 = AXIS2_PLACEMENT_3D('',#1358,#1359,#1360);
#1358 = CARTESIAN_POINT('',(4.769205690643E-03,-4.76901457997E-03,0.));
#1359 = DIRECTION('',(0.,0.,-1.));
#1360 = DIRECTION('',(0.630967458511,0.775809297637,0.));
#1361 = CYLINDRICAL_SURFACE('',#1362,11.036992003908);
#1362 = AXIS2_PLACEMENT_3D('',#1363,#1364,#1365);
#1363 = CARTESIAN_POINT('',(4.769205690643E-03,-4.76901457997E-03,0.));
#1364 = DIRECTION('',(0.,0.,-1.));
#1365 = DIRECTION('',(0.630967458511,0.775809297637,0.));
#1366 = ADVANCED_FACE('',(#1367),#1392,.T.);
#1367 = FACE_BOUND('',#1368,.T.);
#1368 = EDGE_LOOP('',(#1369,#1370,#1378,#1386));
#1369 = ORIENTED_EDGE('',*,*,#1347,.T.);
#1370 = ORIENTED_EDGE('',*,*,#1371,.T.);
#1371 = EDGE_CURVE('',#1339,#1372,#1374,.T.);
#1372 = VERTEX_POINT('',#1373);
#1373 = CARTESIAN_POINT('',(-4.085231,-9.084769,0.71));
#1374 = LINE('',#1375,#1376);
#1375 = CARTESIAN_POINT('',(-4.53523,-10.064769,0.71));
#1376 = VECTOR('',#1377,1.);
#1377 = DIRECTION('',(0.417292454135,0.908772252944,0.));
#1378 = ORIENTED_EDGE('',*,*,#1379,.F.);
#1379 = EDGE_CURVE('',#1380,#1372,#1382,.T.);
#1380 = VERTEX_POINT('',#1381);
#1381 = CARTESIAN_POINT('',(-4.085231,-9.084769,0.));
#1382 = LINE('',#1383,#1384);
#1383 = CARTESIAN_POINT('',(-4.085231,-9.084769,0.));
#1384 = VECTOR('',#1385,1.);
#1385 = DIRECTION('',(0.,0.,1.));
#1386 = ORIENTED_EDGE('',*,*,#1387,.F.);
#1387 = EDGE_CURVE('',#1348,#1380,#1388,.T.);
#1388 = LINE('',#1389,#1390);
#1389 = CARTESIAN_POINT('',(-4.53523,-10.064769,0.));
#1390 = VECTOR('',#1391,1.);
#1391 = DIRECTION('',(0.417292454135,0.908772252944,0.));
#1392 = PLANE('',#1393);
#1393 = AXIS2_PLACEMENT_3D('',#1394,#1395,#1396);
#1394 = CARTESIAN_POINT('',(-4.53523,-10.064769,0.));
#1395 = DIRECTION('',(-0.908772252944,0.417292454135,0.));
#1396 = DIRECTION('',(0.417292454135,0.908772252944,0.));
#1397 = ADVANCED_FACE('',(#1398),#1423,.T.);
#1398 = FACE_BOUND('',#1399,.T.);
#1399 = EDGE_LOOP('',(#1400,#1401,#1409,#1417));
#1400 = ORIENTED_EDGE('',*,*,#1379,.T.);
#1401 = ORIENTED_EDGE('',*,*,#1402,.T.);
#1402 = EDGE_CURVE('',#1372,#1403,#1405,.T.);
#1403 = VERTEX_POINT('',#1404);
#1404 = CARTESIAN_POINT('',(-6.285231,-7.724769,0.71));
#1405 = LINE('',#1406,#1407);
#1406 = CARTESIAN_POINT('',(-4.085231,-9.084769,0.71));
#1407 = VECTOR('',#1408,1.);
#1408 = DIRECTION('',(-0.850594569546,0.525822097538,0.));
#1409 = ORIENTED_EDGE('',*,*,#1410,.F.);
#1410 = EDGE_CURVE('',#1411,#1403,#1413,.T.);
#1411 = VERTEX_POINT('',#1412);
#1412 = CARTESIAN_POINT('',(-6.285231,-7.724769,0.));
#1413 = LINE('',#1414,#1415);
#1414 = CARTESIAN_POINT('',(-6.285231,-7.724769,0.));
#1415 = VECTOR('',#1416,1.);
#1416 = DIRECTION('',(0.,0.,1.));
#1417 = ORIENTED_EDGE('',*,*,#1418,.F.);
#1418 = EDGE_CURVE('',#1380,#1411,#1419,.T.);
#1419 = LINE('',#1420,#1421);
#1420 = CARTESIAN_POINT('',(-4.085231,-9.084769,0.));
#1421 = VECTOR('',#1422,1.);
#1422 = DIRECTION('',(-0.850594569546,0.525822097538,0.));
#1423 = PLANE('',#1424);
#1424 = AXIS2_PLACEMENT_3D('',#1425,#1426,#1427);
#1425 = CARTESIAN_POINT('',(-4.085231,-9.084769,0.));
#1426 = DIRECTION('',(-0.525822097538,-0.850594569546,0.));
#1427 = DIRECTION('',(-0.850594569546,0.525822097538,0.));
#1428 = ADVANCED_FACE('',(#1429),#1445,.T.);
#1429 = FACE_BOUND('',#1430,.T.);
#1430 = EDGE_LOOP('',(#1431,#1432,#1438,#1439));
#1431 = ORIENTED_EDGE('',*,*,#1410,.T.);
#1432 = ORIENTED_EDGE('',*,*,#1433,.T.);
#1433 = EDGE_CURVE('',#1403,#1205,#1434,.T.);
#1434 = LINE('',#1435,#1436);
#1435 = CARTESIAN_POINT('',(-6.285231,-7.724769,0.71));
#1436 = VECTOR('',#1437,1.);
#1437 = DIRECTION('',(-0.624695047554,-0.780868809443,0.));
#1438 = ORIENTED_EDGE('',*,*,#1202,.F.);
#1439 = ORIENTED_EDGE('',*,*,#1440,.F.);
#1440 = EDGE_CURVE('',#1411,#1203,#1441,.T.);
#1441 = LINE('',#1442,#1443);
#1442 = CARTESIAN_POINT('',(-6.285231,-7.724769,0.));
#1443 = VECTOR('',#1444,1.);
#1444 = DIRECTION('',(-0.624695047554,-0.780868809443,0.));
#1445 = PLANE('',#1446);
#1446 = AXIS2_PLACEMENT_3D('',#1447,#1448,#1449);
#1447 = CARTESIAN_POINT('',(-6.285231,-7.724769,0.));
#1448 = DIRECTION('',(0.780868809443,-0.624695047554,0.));
#1449 = DIRECTION('',(-0.624695047554,-0.780868809443,0.));
#1450 = ADVANCED_FACE('',(#1451),#1461,.F.);
#1451 = FACE_BOUND('',#1452,.T.);
#1452 = EDGE_LOOP('',(#1453,#1454,#1455,#1456,#1457,#1458,#1459,#1460));
#1453 = ORIENTED_EDGE('',*,*,#1229,.T.);
#1454 = ORIENTED_EDGE('',*,*,#1261,.T.);
#1455 = ORIENTED_EDGE('',*,*,#1292,.T.);
#1456 = ORIENTED_EDGE('',*,*,#1323,.T.);
#1457 = ORIENTED_EDGE('',*,*,#1355,.T.);
#1458 = ORIENTED_EDGE('',*,*,#1387,.T.);
#1459 = ORIENTED_EDGE('',*,*,#1418,.T.);
#1460 = ORIENTED_EDGE('',*,*,#1440,.T.);
#1461 = PLANE('',#1462);
#1462 = AXIS2_PLACEMENT_3D('',#1463,#1464,#1465);
#1463 = CARTESIAN_POINT('',(0.,0.,0.));
#1464 = DIRECTION('',(0.,0.,1.));
#1465 = DIRECTION('',(1.,0.,-0.));
#1466 = ADVANCED_FACE('',(#1467),#1477,.T.);
#1467 = FACE_BOUND('',#1468,.F.);
#1468 = EDGE_LOOP('',(#1469,#1470,#1471,#1472,#1473,#1474,#1475,#1476));
#1469 = ORIENTED_EDGE('',*,*,#1212,.T.);
#1470 = ORIENTED_EDGE('',*,*,#1245,.T.);
#1471 = ORIENTED_EDGE('',*,*,#1276,.T.);
#1472 = ORIENTED_EDGE('',*,*,#1307,.T.);
#1473 = ORIENTED_EDGE('',*,*,#1338,.T.);
#1474 = ORIENTED_EDGE('',*,*,#1371,.T.);
#1475 = ORIENTED_EDGE('',*,*,#1402,.T.);
#1476 = ORIENTED_EDGE('',*,*,#1433,.T.);
#1477 = PLANE('',#1478);
#1478 = AXIS2_PLACEMENT_3D('',#1479,#1480,#1481);
#1479 = CARTESIAN_POINT('',(0.,0.,0.71));
#1480 = DIRECTION('',(0.,0.,1.));
#1481 = DIRECTION('',(1.,0.,-0.));
#1482 = ( GEOMETRIC_REPRESENTATION_CONTEXT(3) 
GLOBAL_UNCERTAINTY_ASSIGNED_CONTEXT((#1486)) 
GLOBAL_UNIT_ASSIGNED_CONTEXT((#1483,#1484,#1485)) REPRESENTATION_CONTEXT
('Context #1','3D Context with UNIT and UNCERTAINTY') );
#1483 = ( LENGTH_UNIT() NAMED_UNIT(*) SI_UNIT(.MILLI.,.METRE.) );
#1484 = ( NAMED_UNIT(*) PLANE_ANGLE_UNIT() SI_UNIT($,.RADIAN.) );
#1485 = ( NAMED_UNIT(*) SI_UNIT($,.STERADIAN.) SOLID_ANGLE_UNIT() );
#1486 = UNCERTAINTY_MEASURE_WITH_UNIT(LENGTH_MEASURE(1.E-07),#1483,
  'distance_accuracy_value','confusion accuracy');
#1487 = CONTEXT_DEPENDENT_SHAPE_REPRESENTATION(#1488,#1490);
#1488 = ( REPRESENTATION_RELATIONSHIP('','',#1195,#10) 
REPRESENTATION_RELATIONSHIP_WITH_TRANSFORMATION(#1489) 
SHAPE_REPRESENTATION_RELATIONSHIP() );
#1489 = ITEM_DEFINED_TRANSFORMATION('','',#11,#27);
#1490 = PRODUCT_DEFINITION_SHAPE('Placement','Placement of an item',
  #1491);
#1491 = NEXT_ASSEMBLY_USAGE_OCCURRENCE('4','=>[0:1:1:5]','',#5,#1190,$);
#1492 = PRODUCT_RELATED_PRODUCT_CATEGORY('part',$,(#1192));
#1493 = MECHANICAL_DESIGN_GEOMETRIC_PRESENTATION_REPRESENTATION('',(
    #1494,#1502,#1509,#1516,#1523,#1530),#751);
#1494 = STYLED_ITEM('color',(#1495),#45);
#1495 = PRESENTATION_STYLE_ASSIGNMENT((#1496));
#1496 = SURFACE_STYLE_USAGE(.BOTH.,#1497);
#1497 = SURFACE_SIDE_STYLE('',(#1498));
#1498 = SURFACE_STYLE_FILL_AREA(#1499);
#1499 = FILL_AREA_STYLE('',(#1500));
#1500 = FILL_AREA_STYLE_COLOUR('',#1501);
#1501 = COLOUR_RGB('',0.854305825093,0.803630995277,0.);
#1502 = STYLED_ITEM('color',(#1503),#98);
#1503 = PRESENTATION_STYLE_ASSIGNMENT((#1504));
#1504 = SURFACE_STYLE_USAGE(.BOTH.,#1505);
#1505 = SURFACE_SIDE_STYLE('',(#1506));
#1506 = SURFACE_STYLE_FILL_AREA(#1507);
#1507 = FILL_AREA_STYLE('',(#1508));
#1508 = FILL_AREA_STYLE_COLOUR('',#1501);
#1509 = STYLED_ITEM('color',(#1510),#248);
#1510 = PRESENTATION_STYLE_ASSIGNMENT((#1511));
#1511 = SURFACE_STYLE_USAGE(.BOTH.,#1512);
#1512 = SURFACE_SIDE_STYLE('',(#1513));
#1513 = SURFACE_STYLE_FILL_AREA(#1514);
#1514 = FILL_AREA_STYLE('',(#1515));
#1515 = FILL_AREA_STYLE_COLOUR('',#1501);
#1516 = STYLED_ITEM('color',(#1517),#301);
#1517 = PRESENTATION_STYLE_ASSIGNMENT((#1518));
#1518 = SURFACE_STYLE_USAGE(.BOTH.,#1519);
#1519 = SURFACE_SIDE_STYLE('',(#1520));
#1520 = SURFACE_STYLE_FILL_AREA(#1521);
#1521 = FILL_AREA_STYLE('',(#1522));
#1522 = FILL_AREA_STYLE_COLOUR('',#1501);
#1523 = STYLED_ITEM('color',(#1524),#451);
#1524 = PRESENTATION_STYLE_ASSIGNMENT((#1525));
#1525 = SURFACE_STYLE_USAGE(.BOTH.,#1526);
#1526 = SURFACE_SIDE_STYLE('',(#1527));
#1527 = SURFACE_STYLE_FILL_AREA(#1528);
#1528 = FILL_AREA_STYLE('',(#1529));
#1529 = FILL_AREA_STYLE_COLOUR('',#1501);
#1530 = STYLED_ITEM('color',(#1531),#601);
#1531 = PRESENTATION_STYLE_ASSIGNMENT((#1532));
#1532 = SURFACE_STYLE_USAGE(.BOTH.,#1533);
#1533 = SURFACE_SIDE_STYLE('',(#1534));
#1534 = SURFACE_STYLE_FILL_AREA(#1535);
#1535 = FILL_AREA_STYLE('',(#1536));
#1536 = FILL_AREA_STYLE_COLOUR('',#1501);
#1537 = MECHANICAL_DESIGN_GEOMETRIC_PRESENTATION_REPRESENTATION('',(
    #1538),#1177);
#1538 = STYLED_ITEM('color',(#1539),#899);
#1539 = PRESENTATION_STYLE_ASSIGNMENT((#1540));
#1540 = SURFACE_STYLE_USAGE(.BOTH.,#1541);
#1541 = SURFACE_SIDE_STYLE('',(#1542,#1546));
#1542 = SURFACE_STYLE_FILL_AREA(#1543);
#1543 = FILL_AREA_STYLE('',(#1544));
#1544 = FILL_AREA_STYLE_COLOUR('',#1545);
#1545 = COLOUR_RGB('',0.313304153717,0.484529207832,0.410020903123);
#1546 = SURFACE_STYLE_RENDERING_WITH_PROPERTIES(.NORMAL_SHADING.,#1545,(
    #1547));
#1547 = SURFACE_STYLE_TRANSPARENT(0.170000016689);
#1548 = MECHANICAL_DESIGN_GEOMETRIC_PRESENTATION_REPRESENTATION('',(
    #1549),#1482);
#1549 = STYLED_ITEM('color',(#1550),#1196);
#1550 = PRESENTATION_STYLE_ASSIGNMENT((#1551));
#1551 = SURFACE_STYLE_USAGE(.BOTH.,#1552);
#1552 = SURFACE_SIDE_STYLE('',(#1553));
#1553 = SURFACE_STYLE_FILL_AREA(#1554);
#1554 = FILL_AREA_STYLE('',(#1555));
#1555 = FILL_AREA_STYLE_COLOUR('',#1556);
#1556 = COLOUR_RGB('',0.583831500637,0.583831500637,0.583831500637);
#1557 = MECHANICAL_DESIGN_GEOMETRIC_PRESENTATION_REPRESENTATION('',(
    #1558),#878);
#1558 = STYLED_ITEM('color',(#1559),#772);
#1559 = PRESENTATION_STYLE_ASSIGNMENT((#1560));
#1560 = SURFACE_STYLE_USAGE(.BOTH.,#1561);
#1561 = SURFACE_SIDE_STYLE('',(#1562,#1565));
#1562 = SURFACE_STYLE_FILL_AREA(#1563);
#1563 = FILL_AREA_STYLE('',(#1564));
#1564 = FILL_AREA_STYLE_COLOUR('',#1545);
#1565 = SURFACE_STYLE_RENDERING_WITH_PROPERTIES(.NORMAL_SHADING.,#1545,(
    #1566));
#1566 = SURFACE_STYLE_TRANSPARENT(0.170000016689);
ENDSEC;
END-ISO-10303-21;
